<svg version="1.1" id="Layer_1" xmlns="http://www.w3.org/2000/svg" xmlns:xlink="http://www.w3.org/1999/xlink" x="0px" y="0px"
	 width="100%" viewBox="0 0 368 368" enable-background="new 0 0 368 368" xml:space="preserve">
<path fill="#000000" opacity="1.000000" stroke="none" 
	d="
M361.100891,156.217545 
	C368.203339,200.630661 360.953552,241.943832 336.790527,279.589813 
	C308.582489,323.537994 268.503082,349.784332 216.633072,357.371826 
	C131.069504,369.887939 49.695496,314.274628 28.402161,228.942947 
	C5.669269,137.842361 59.789040,46.288769 150.383667,22.115124 
	C245.605835,-3.293307 341.546387,57.062447 360.600677,154.356476 
	C360.696259,154.844589 360.880798,155.315292 361.100891,156.217545 
M142.129791,268.573853 
	C144.405273,277.759430 146.680756,286.945007 149.264297,297.374115 
	C156.992294,268.901489 159.993973,240.726776 152.310287,212.706604 
	C151.663116,210.346558 151.085007,207.900421 153.837357,206.624939 
	C156.652176,205.320541 158.114441,207.576233 159.462494,209.484222 
	C164.081223,216.021408 168.299316,222.783646 171.815689,230.010071 
	C176.261230,239.145950 179.476624,248.717072 182.285095,258.560791 
	C183.934937,257.682556 184.236420,256.308472 184.739578,255.130402 
	C188.876450,245.444336 194.179001,236.389923 199.706436,227.461288 
	C210.920349,209.347122 224.860977,193.477234 240.097824,178.696198 
	C241.974365,176.875793 244.125275,174.605759 246.929291,177.288956 
	C249.434341,179.686081 247.734116,181.858398 246.139206,183.855316 
	C238.595428,193.300690 233.245880,204.053787 227.722870,214.701141 
	C226.590927,216.883301 225.657272,219.168304 224.632217,221.405899 
	C229.143845,217.705734 232.873444,213.683868 236.706390,209.763046 
	C238.352005,208.079697 240.255768,206.330368 242.818710,207.876404 
	C245.455048,209.466736 244.622284,211.830978 243.720657,214.080994 
	C243.596756,214.390182 243.485703,214.704651 243.373810,215.018494 
	C234.203949,240.740036 233.242538,267.091797 237.334991,293.828735 
	C237.549179,295.228058 237.398300,296.952515 239.559174,296.959717 
	C240.902023,295.952240 240.597565,294.524780 240.665131,293.239258 
	C241.171860,283.597534 242.284729,274.011108 243.972031,264.521973 
	C252.356461,217.369156 271.322449,175.258011 303.895844,139.701706 
	C305.544525,137.902023 307.083710,135.277954 310.060516,137.093567 
	C313.223633,139.022781 311.791992,141.638718 310.574188,144.094452 
	C296.117188,173.246521 285.988464,203.788788 281.687286,236.098511 
	C279.540436,252.225159 278.474976,268.459534 279.259949,286.163208 
	C280.004272,283.071625 280.481293,281.340118 280.834808,279.583771 
	C284.720612,260.275635 292.056763,242.296234 302.125671,225.452118 
	C305.705475,219.463516 310.011505,213.902481 314.101410,208.229477 
	C315.294495,206.574585 316.934998,205.155014 319.191528,206.597107 
	C321.171234,207.862320 321.563202,209.684280 320.582611,211.817596 
	C320.304749,212.422119 320.078857,213.052231 319.856232,213.680191 
	C312.595612,234.160095 309.178162,255.245010 310.536438,276.954620 
	C310.912903,282.971863 310.955414,289.169098 313.105469,294.987671 
	C315.311981,294.675079 316.110748,293.064728 317.107300,291.808014 
	C349.262115,251.258514 361.677277,205.480484 351.614319,154.566864 
	C334.465607,67.802963 254.107010,15.934365 173.281937,26.620707 
	C128.811783,32.500362 91.901901,53.401642 65.215233,89.511948 
	C27.804482,140.133255 22.482225,195.401962 46.112247,253.479614 
	C52.371201,268.862793 61.757820,282.463348 72.532768,295.100525 
	C74.519798,297.430969 76.775955,298.168762 79.600533,297.618958 
	C82.467789,297.060883 82.246040,294.565399 82.610359,292.512604 
	C83.365013,288.260468 83.860268,283.954407 84.788734,279.742493 
	C87.697556,266.546936 91.001724,253.472244 98.320404,241.842407 
	C99.431541,240.076752 100.631538,238.432220 103.103394,239.324905 
	C105.573891,240.217087 106.171738,242.215942 105.909554,244.563309 
	C104.048866,261.222290 107.341400,277.342133 111.020630,293.416718 
	C111.311165,294.686005 111.215431,296.361298 113.667526,297.072723 
	C113.667526,294.570587 113.704117,292.436249 113.661430,290.303528 
	C113.427826,278.631622 113.815643,266.969177 115.742073,255.457733 
	C118.255386,240.439346 122.509895,225.932083 130.395447,212.729401 
	C131.643158,210.640366 132.955994,207.967773 136.115219,209.009125 
	C139.272171,210.049698 138.758835,212.787781 138.387390,215.323685 
	C135.789810,233.057648 137.562332,250.500290 142.129791,268.573853 
M286.764740,320.221069 
	C290.838165,317.772675 293.560211,314.852448 293.008118,309.404480 
	C292.619354,305.568054 290.784790,305.267181 287.791443,305.222839 
	C284.701263,305.177032 282.979919,306.075500 283.315521,309.473267 
	C283.429474,310.626862 283.312561,311.803619 283.296143,312.969727 
	C283.265411,315.148468 282.764038,317.057800 280.127869,317.194061 
	C277.380859,317.336029 276.359528,315.490631 275.968811,313.146240 
	C275.833038,312.331604 275.772247,311.471802 275.871460,310.656219 
	C276.368073,306.574005 274.715790,305.106293 270.530273,305.120422 
	C265.866577,305.136169 266.035797,307.871979 266.105286,311.047424 
	C266.185486,314.710114 266.230133,318.380676 266.075134,322.038727 
	C265.984192,324.184265 264.996582,326.062714 262.524994,326.108276 
	C259.803436,326.158417 258.763092,324.316315 258.725098,321.843079 
	C258.661133,317.678741 258.524750,313.507568 258.690277,309.350098 
	C258.829407,305.854797 257.031342,305.178284 254.048050,305.219818 
	C251.197372,305.259491 249.322769,305.639954 249.240585,309.238861 
	C249.173676,312.168396 251.066589,316.966614 245.829422,317.045135 
	C240.902786,317.118988 241.902496,312.526520 241.911118,309.407593 
	C241.920578,305.995667 240.301849,305.211945 237.272858,305.196686 
	C234.026947,305.180267 232.173248,306.064667 232.387573,309.706757 
	C232.592819,313.194702 232.552368,316.697540 232.600723,320.194122 
	C232.637772,322.872589 233.012024,326.063232 229.275543,326.338654 
	C225.145493,326.643127 225.176605,323.197876 225.048691,320.383209 
	C224.889969,316.891388 224.884293,313.384277 225.006592,309.890564 
	C225.112534,306.864685 224.233398,305.279083 220.814743,305.238373 
	C217.416687,305.197937 216.010239,306.297333 216.011383,309.814087 
	C216.012375,312.872864 217.260529,317.551544 212.185791,317.428925 
	C207.067841,317.305298 208.692627,312.591125 208.724258,309.594421 
	C208.764191,305.811279 206.897369,305.267395 203.744080,305.235901 
	C200.350723,305.202026 198.849442,306.348419 199.005356,309.868896 
	C199.182083,313.858582 199.120255,317.867676 198.959930,321.860199 
	C198.860474,324.337006 198.068466,326.644897 194.934372,326.488770 
	C192.047470,326.344940 191.679489,324.165100 191.597946,321.837677 
	C191.463882,318.011200 191.099777,314.185120 191.142700,310.362366 
	C191.181503,306.904907 190.188797,305.188568 186.302643,305.234772 
	C182.342697,305.281891 182.057312,307.476746 182.171524,310.424286 
	C182.222855,311.748932 182.211014,313.105316 181.983551,314.404572 
	C181.638962,316.372925 180.570023,317.932800 178.359940,317.805237 
	C176.290619,317.685852 175.024887,316.329895 174.809494,314.251709 
	C174.638275,312.599823 174.544937,310.915894 174.660324,309.263184 
	C174.914825,305.618073 172.730865,305.316742 169.893372,305.308441 
	C166.991516,305.299988 165.019928,305.805023 165.136261,309.350739 
	C165.278229,313.676971 165.219849,318.013702 165.114609,322.342651 
	C165.056564,324.729950 164.041489,326.766144 161.351074,326.735687 
	C158.681503,326.705536 157.717697,324.759277 157.705582,322.288208 
	C157.686798,318.456421 157.516937,314.616577 157.708481,310.795074 
	C157.889862,307.176605 157.040955,305.264252 152.811722,305.278687 
	C148.750717,305.292542 148.002411,307.204803 148.254807,310.539368 
	C148.354752,311.860016 148.298843,313.210876 148.143936,314.528015 
	C147.926727,316.374481 146.870407,317.692902 144.971619,317.828369 
	C142.904022,317.975861 141.352295,316.883636 140.972580,314.832642 
	C140.642746,313.051147 140.569199,311.169891 140.723862,309.361938 
	C141.041946,305.643219 138.746216,305.428192 135.992188,305.355286 
	C133.172134,305.280701 131.049530,305.557648 131.204788,309.247650 
	C131.386719,313.571259 131.283539,317.909393 131.216110,322.239868 
	C131.178329,324.666809 130.145340,326.645508 127.489876,326.676422 
	C124.814667,326.707550 123.780785,324.756653 123.738846,322.307587 
	C123.673248,318.476746 123.560974,314.638916 123.718941,310.814392 
	C123.862144,307.346863 123.391289,305.207550 118.967064,305.231079 
	C114.549866,305.254578 113.999481,307.418671 114.271774,310.862152 
	C114.362991,312.015656 114.303825,313.201691 114.145798,314.349792 
	C113.861343,316.416351 112.666748,317.810638 110.518845,317.728271 
	C108.460709,317.649414 107.114014,316.342438 106.884895,314.258392 
	C106.685410,312.443939 106.657188,310.598572 106.708252,308.771210 
	C106.807945,305.203522 104.367729,305.279266 101.949753,305.390930 
	C99.582664,305.500244 96.718613,304.675903 96.379318,308.585693 
	C95.911324,313.978516 96.720413,318.105377 101.955803,321.652283 
	C130.870575,341.241547 162.523392,350.846954 197.496063,350.013275 
	C230.112686,349.235779 259.586395,339.406586 286.764740,320.221069 
M272.538727,250.064453 
	C272.645081,247.918625 272.704590,245.769257 272.866974,243.627686 
	C273.276245,238.230789 275.131989,232.763153 272.033752,227.553116 
	C270.910980,225.665054 271.860565,222.159561 268.921661,221.904739 
	C266.207123,221.669418 264.187592,224.095123 262.452271,226.061462 
	C261.394531,227.260025 260.725586,228.892715 260.183197,230.436264 
	C259.027740,233.724609 258.005524,237.063766 257.039581,240.414078 
	C252.191895,257.228271 249.343704,274.380768 248.232605,291.844391 
	C247.973969,295.909363 249.505814,297.713562 253.567169,297.642578 
	C258.385895,297.558289 263.208099,297.603455 268.027771,297.667847 
	C270.739258,297.704102 271.947876,296.560211 271.858826,293.770294 
	C271.402679,279.478333 271.631989,265.194580 272.538727,250.064453 
M208.899277,268.385132 
	C207.341049,276.710083 205.436310,284.981628 205.249786,293.510315 
	C205.195007,296.014984 205.742722,297.729980 208.761444,297.682861 
	C214.585617,297.591949 220.412033,297.604156 226.237213,297.634186 
	C229.117249,297.649017 230.036697,296.167755 229.751099,293.509369 
	C229.360809,289.876404 229.066833,286.233154 228.686371,282.599060 
	C227.047592,266.945618 227.781052,251.391083 230.507889,235.905090 
	C230.754761,234.503098 231.089691,232.905334 228.528748,230.824188 
	C220.372238,242.321671 212.426132,253.625854 208.899277,268.385132 
M181.553253,284.940369 
	C180.461868,288.890686 178.960876,292.759766 178.910126,297.630432 
	C184.258331,297.630432 189.367325,297.685120 194.474319,297.608154 
	C197.161713,297.567688 197.434677,295.554932 197.703186,293.432434 
	C199.897568,276.086243 203.706512,259.087555 208.758194,242.354660 
	C209.440002,240.096298 211.242722,237.189835 208.212692,235.690018 
	C205.564011,234.378906 203.686111,236.896866 202.001877,238.736206 
	C201.444778,239.344604 200.957123,240.040421 200.551880,240.760529 
	C192.778885,254.573318 185.953018,268.796600 181.553253,284.940369 
M133.099976,264.085602 
	C130.861679,262.324127 129.164658,260.241913 128.495590,257.353760 
	C128.207184,256.108856 127.571236,254.630966 125.888596,254.832458 
	C124.102089,255.046371 124.247635,256.666870 124.152824,257.953949 
	C123.340218,268.985382 120.335808,279.792847 121.115410,291.004059 
	C121.579247,297.674316 121.293480,297.698090 128.222794,297.717102 
	C130.879562,297.724396 133.542984,297.588806 136.191635,297.733246 
	C139.985825,297.940094 141.465363,296.322632 140.529816,292.642944 
	C138.160660,283.324829 135.751968,274.016785 133.099976,264.085602 
M166.990723,297.689392 
	C169.782578,297.969757 170.744659,296.124634 171.428024,293.909637 
	C173.046738,288.662933 174.598709,283.393219 176.343964,278.188568 
	C178.747040,271.022186 175.807938,264.634521 174.164139,257.745697 
	C171.861252,258.247803 170.100800,258.975800 168.355484,258.941101 
	C164.625793,258.867035 163.670776,260.769653 163.218994,264.120789 
	C162.219452,271.534912 160.727524,278.881714 159.492188,286.265320 
	C158.896149,289.827850 157.673386,293.329498 158.191177,297.100159 
	C160.837799,298.188812 163.525238,297.515411 166.990723,297.689392 
M303.232422,277.075470 
	C303.113495,275.090027 302.805054,273.094147 302.913940,271.121277 
	C303.162964,266.608398 302.216766,262.688660 298.435852,259.916290 
	C294.977692,260.670197 293.214050,262.854828 292.143646,265.873322 
	C289.032318,274.647217 286.883606,283.649933 285.482574,292.844666 
	C285.044373,295.720154 286.119171,297.400452 289.086426,297.489349 
	C292.731110,297.598602 296.380615,297.572601 300.027893,297.563263 
	C303.889008,297.553375 305.270813,295.643707 304.744232,291.824524 
	C304.111633,287.236725 303.816803,282.602325 303.232422,277.075470 
M98.559006,265.847595 
	C97.269951,262.997101 96.411201,264.582245 95.895477,266.211578 
	C93.138519,274.921814 90.965942,283.765930 90.306000,292.915680 
	C90.197365,294.421783 90.249290,296.086670 91.921288,296.768555 
	C94.931923,297.996368 98.176987,298.387512 101.067787,296.827209 
	C103.768173,295.369659 103.181519,292.438995 102.629463,290.067261 
	C100.820473,282.295410 99.867996,274.393097 98.559006,265.847595 
M88.904282,309.827942 
	C89.855812,308.442932 90.033119,306.887299 88.616791,305.926697 
	C87.069252,304.877106 85.378174,305.453583 83.453064,306.429016 
	C85.182167,308.084015 86.154945,309.883820 88.904282,309.827942 
z"/>
<path fill="#000000" opacity="1.000000" stroke="none" 
	d="
M181.286209,221.135010 
	C168.239578,208.494339 155.503113,196.081757 142.578491,183.485794 
	C141.241928,184.750305 140.134613,185.724930 139.108978,186.778976 
	C116.919212,209.583603 94.740196,232.398666 72.551971,255.204773 
	C71.274773,256.517548 69.986862,257.827789 68.615799,259.039459 
	C66.573929,260.843933 64.319557,261.936890 62.071404,259.466858 
	C59.981667,257.170898 61.279774,255.160904 63.011581,253.357315 
	C69.472870,246.628220 75.908348,239.873627 82.428734,233.202133 
	C100.593887,214.615982 118.791527,196.061554 136.988098,177.506134 
	C142.027481,172.367371 143.113876,172.390656 148.316589,177.565125 
	C159.066254,188.256439 169.873520,198.890900 180.522858,209.681244 
	C183.237778,212.432098 185.096176,212.477371 187.811920,209.584106 
	C220.075699,175.211456 252.443283,140.936264 284.756317,106.609795 
	C285.497864,105.822060 286.701324,105.213989 286.499298,103.289055 
	C282.090546,104.183563 277.759644,105.092010 273.415680,105.933128 
	C270.543976,106.489174 267.396454,107.004166 266.500122,103.194481 
	C265.557587,99.188553 268.909515,98.478172 271.641907,97.942177 
	C279.959137,96.310593 288.322479,94.914703 296.665710,93.415100 
	C300.768890,92.677605 302.685577,94.462540 302.586700,98.538963 
	C302.364563,107.697311 302.119781,116.855110 301.883301,126.013100 
	C301.870392,126.512680 301.871490,127.013962 301.828552,127.511200 
	C301.599670,130.160431 300.988800,132.796204 297.708313,132.705383 
	C294.593781,132.619171 293.641968,130.278351 293.685699,127.446335 
	C293.747437,123.448425 293.828918,119.450096 293.818176,115.452164 
	C293.813812,113.836998 294.362976,112.154587 293.250000,110.245628 
	C290.776733,111.434196 289.269836,113.661087 287.517883,115.515221 
	C255.142746,149.778824 222.809326,184.081833 190.437485,218.348572 
	C188.075607,220.848694 185.787247,224.020416 181.286209,221.135010 
z"/>
</svg>