<?xml version="1.0" encoding="UTF-8"?>
<svg version="1.1" xmlns="http://www.w3.org/2000/svg" width="382" height="382">
<path d="M0 0 C0.97919403 0.00326294 1.95838806 0.00652588 2.96725464 0.0098877 C49.00064729 0.23312993 90.46523837 18.38803535 123.125 50.625 C132.4324199 60.0403805 139.9360103 70.30131718 146.8125 81.5625 C147.493125 82.65175781 148.17375 83.74101563 148.875 84.86328125 C157.13325437 98.58940325 163.21979862 113.95670337 166.8125 129.5625 C167.08320312 130.6774585 167.08320312 130.6774585 167.359375 131.81494141 C177.14052275 173.34351383 170.65655063 220.55401765 148.65625 257.234375 C146.47449712 260.74652388 144.17049457 264.16679689 141.8125 267.5625 C141.38614258 268.17818848 140.95978516 268.79387695 140.52050781 269.42822266 C129.04075839 285.92031662 129.04075839 285.92031662 121.8125 292.5625 C121.1525 292.5625 120.4925 292.5625 119.8125 292.5625 C119.1525 293.8825 118.4925 295.2025 117.8125 296.5625 C117.1525 296.5625 116.4925 296.5625 115.8125 296.5625 C115.8125 297.2225 115.8125 297.8825 115.8125 298.5625 C113.74531619 300.35506523 111.67278281 302.03126028 109.5 303.6875 C108.85699951 304.1817749 108.21399902 304.6760498 107.55151367 305.18530273 C106.24468466 306.18664769 104.93552677 307.18496083 103.62402344 308.18017578 C102.10297897 309.34084341 100.60001397 310.52515101 99.1015625 311.71484375 C81.43346591 325.3421296 58.69841465 335.33149769 36.8125 339.5625 C36.08095703 339.70526367 35.34941406 339.84802734 34.59570312 339.99511719 C-4.95877276 347.47249262 -45.86305297 342.63388871 -81.1875 322.5625 C-82.27675781 321.94890625 -83.36601563 321.3353125 -84.48828125 320.703125 C-100.95863354 310.96972999 -118.86963095 298.25468228 -130.1875 282.5625 C-130.1875 281.9025 -130.1875 281.2425 -130.1875 280.5625 C-130.8475 280.5625 -131.5075 280.5625 -132.1875 280.5625 C-132.5175 279.2425 -132.8475 277.9225 -133.1875 276.5625 C-133.8475 276.5625 -134.5075 276.5625 -135.1875 276.5625 C-136.53162438 274.7822028 -137.78786819 272.93516253 -139 271.0625 C-139.71542969 269.9590625 -140.43085938 268.855625 -141.16796875 267.71875 C-142.16763672 266.15640625 -142.16763672 266.15640625 -143.1875 264.5625 C-143.89326172 263.49515625 -143.89326172 263.49515625 -144.61328125 262.40625 C-148.3120266 256.71957963 -151.25103274 250.66910566 -154.1875 244.5625 C-154.83912109 243.2321875 -154.83912109 243.2321875 -155.50390625 241.875 C-167.429803 216.75210778 -171.36585295 189.17943219 -170.1875 161.5625 C-170.15172852 160.71751953 -170.11595703 159.87253906 -170.07910156 159.00195312 C-169.17184237 140.87001386 -165.13802187 123.36205925 -158.1875 106.5625 C-157.89488281 105.8509375 -157.60226563 105.139375 -157.30078125 104.40625 C-156.31052685 102.09983469 -155.26157271 99.83116842 -154.1875 97.5625 C-153.68347656 96.49 -153.17945313 95.4175 -152.66015625 94.3125 C-148.76635974 86.26002286 -144.40760264 78.85148735 -139.1875 71.5625 C-138.49527344 70.57121094 -137.80304688 69.57992187 -137.08984375 68.55859375 C-126.40234613 53.91140576 -113.03906368 40.94417558 -98.1875 30.5625 C-96.99447266 29.71171875 -96.99447266 29.71171875 -95.77734375 28.84375 C-90.16060285 24.9605711 -84.22438002 21.73892998 -78.1875 18.5625 C-77.35476562 18.09070313 -76.52203125 17.61890625 -75.6640625 17.1328125 C-68.92687831 13.4777419 -61.92869695 10.912405 -54.6875 8.4375 C-53.75784424 8.11281738 -52.82818848 7.78813477 -51.87036133 7.45361328 C-34.73049517 1.77445527 -17.98130113 -0.16280106 0 0 Z M-80.1875 249.5625 C-80.5175 251.2125 -80.8475 252.8625 -81.1875 254.5625 C-82.5075 254.8925 -83.8275 255.2225 -85.1875 255.5625 C-84.7469717 263.06307393 -84.2415824 270.31279741 -82.1875 277.5625 C-81.5275 277.8925 -80.8675 278.2225 -80.1875 278.5625 C-79.8575 268.9925 -79.5275 259.4225 -79.1875 249.5625 C-79.5175 249.5625 -79.8475 249.5625 -80.1875 249.5625 Z M-10.1875 288.5625 C-11.52083333 291.5625 -11.52083333 291.5625 -10.1875 294.5625 C-9.1975 294.5625 -8.2075 294.5625 -7.1875 294.5625 C-7.1875 296.5425 -7.1875 298.5225 -7.1875 300.5625 C-8.1875 299.5625 -8.1875 299.5625 -10.1875 296.5625 C-10.8475 297.8825 -11.5075 299.2025 -12.1875 300.5625 C-17.9375 300.6875 -17.9375 300.6875 -20.1875 299.5625 C-20.5175 300.2225 -20.8475 300.8825 -21.1875 301.5625 C-21.8475 300.5725 -22.5075 299.5825 -23.1875 298.5625 C-24.1775 298.5625 -25.1675 298.5625 -26.1875 298.5625 C-26.8475 298.5625 -27.5075 298.5625 -28.1875 298.5625 C-28.21328125 299.28695313 -28.2390625 300.01140625 -28.265625 300.7578125 C-28.63204931 307.00368143 -29.29407995 310.66432639 -33.1875 315.5625 C-33.1875 316.2225 -33.1875 316.8825 -33.1875 317.5625 C-34.8375 318.2225 -36.4875 318.8825 -38.1875 319.5625 C-37.68918276 323.25004757 -37.08682357 325.16740662 -34.1875 327.5625 C-35.6725 328.0575 -35.6725 328.0575 -37.1875 328.5625 C-27.15157636 331.36473842 -17.66522765 333.29067216 -7.1875 333.5625 C-6.135625 333.59085937 -5.08375 333.61921875 -4 333.6484375 C5.46567107 333.81931728 5.46567107 333.81931728 14.8125 332.5625 C15.3075 331.5725 15.3075 331.5725 15.8125 330.5625 C12.19276598 329.24623308 9.71682869 328.5625 5.8125 328.5625 C6.1425 326.9125 6.4725 325.2625 6.8125 323.5625 C7.8025 323.2325 8.7925 322.9025 9.8125 322.5625 C9.8125 320.9125 9.8125 319.2625 9.8125 317.5625 C10.4725 317.5625 11.1325 317.5625 11.8125 317.5625 C11.8125 316.9025 11.8125 316.2425 11.8125 315.5625 C11.1525 315.5625 10.4925 315.5625 9.8125 315.5625 C9.64973958 313.54427083 9.48697917 311.52604167 9.32421875 309.5078125 C8.93856964 307.16730784 8.93856964 307.16730784 5.8125 305.5625 C5.4825 306.8825 5.1525 308.2025 4.8125 309.5625 C3.14638095 309.605221 1.47867115 309.60313832 -0.1875 309.5625 C-1.73320331 308.01679669 -1.38574102 306.4931528 -1.46875 304.34375 C-1.52482422 303.06951172 -1.52482422 303.06951172 -1.58203125 301.76953125 C-1.65234375 299.96484375 -1.72265625 298.16015625 -1.79296875 296.35546875 C-1.84904297 295.08123047 -1.84904297 295.08123047 -1.90625 293.78125 C-1.93654297 292.99685547 -1.96683594 292.21246094 -1.99804688 291.40429688 C-1.99341468 289.54623804 -1.99341468 289.54623804 -3.1875 288.5625 C-5.52047433 288.52157063 -7.85455225 288.52008277 -10.1875 288.5625 Z M22.8125 290.5625 C22.8125 291.5525 22.8125 292.5425 22.8125 293.5625 C24.7925 293.5625 26.7725 293.5625 28.8125 293.5625 C28.8125 292.5725 28.8125 291.5825 28.8125 290.5625 C29.8025 290.2325 30.7925 289.9025 31.8125 289.5625 C27.07173451 288.37551999 27.07173451 288.37551999 22.8125 290.5625 Z M-26.1875 289.5625 C-26.8475 290.8825 -27.5075 292.2025 -28.1875 293.5625 C-26.2075 293.5625 -24.2275 293.5625 -22.1875 293.5625 C-21.8575 292.9025 -21.5275 292.2425 -21.1875 291.5625 C-20.5275 292.2225 -19.8675 292.8825 -19.1875 293.5625 C-19.1875 292.2425 -19.1875 290.9225 -19.1875 289.5625 C-21.4975 289.5625 -23.8075 289.5625 -26.1875 289.5625 Z M9.8125 289.5625 C11.7925 290.5525 11.7925 290.5525 13.8125 291.5625 C14.1425 290.9025 14.4725 290.2425 14.8125 289.5625 C13.1625 289.5625 11.5125 289.5625 9.8125 289.5625 Z M15.8125 302.5625 C16.5888932 305.6370356 16.5888932 305.6370356 18.8125 307.5625 C18.4825 308.2225 18.1525 308.8825 17.8125 309.5625 C18.4725 309.5625 19.1325 309.5625 19.8125 309.5625 C20.1425 310.2225 20.4725 310.8825 20.8125 311.5625 C20.8125 310.9025 20.8125 310.2425 20.8125 309.5625 C21.51117188 309.73007812 22.20984375 309.89765625 22.9296875 310.0703125 C23.83976563 310.27398437 24.74984375 310.47765625 25.6875 310.6875 C27.04488281 311.00074219 27.04488281 311.00074219 28.4296875 311.3203125 C29.60917969 311.44019531 29.60917969 311.44019531 30.8125 311.5625 C31.4725 310.9025 32.1325 310.2425 32.8125 309.5625 C32.4825 308.5725 32.1525 307.5825 31.8125 306.5625 C30.4925 306.5625 29.1725 306.5625 27.8125 306.5625 C27.4825 305.9025 27.1525 305.2425 26.8125 304.5625 C26.8125 305.2225 26.8125 305.8825 26.8125 306.5625 C25.8225 306.5625 24.8325 306.5625 23.8125 306.5625 C23.8125 304.5825 23.8125 302.6025 23.8125 300.5625 C20.92854263 300.5625 18.51772185 301.62155327 15.8125 302.5625 Z M-64.1875 310.5625 C-65.1775 312.0475 -65.1775 312.0475 -66.1875 313.5625 C-65.1975 315.0475 -65.1975 315.0475 -64.1875 316.5625 C-65.1775 317.0575 -65.1775 317.0575 -66.1875 317.5625 C-64.21329865 320.08509061 -63.22004358 320.5554808 -60 321.25 C-58.6078125 321.4046875 -58.6078125 321.4046875 -57.1875 321.5625 C-57.1875 320.9025 -57.1875 320.2425 -57.1875 319.5625 C-58.1775 318.9025 -59.1675 318.2425 -60.1875 317.5625 C-60.375 314.4375 -60.375 314.4375 -60.1875 311.5625 C-61.5075 311.2325 -62.8275 310.9025 -64.1875 310.5625 Z M-75.1875 311.5625 C-75.5175 312.2225 -75.8475 312.8825 -76.1875 313.5625 C-75.1975 313.2325 -74.2075 312.9025 -73.1875 312.5625 C-73.8475 312.2325 -74.5075 311.9025 -75.1875 311.5625 Z M-54.1875 322.5625 C-52.2075 323.5525 -52.2075 323.5525 -50.1875 324.5625 C-50.5175 323.9025 -50.8475 323.2425 -51.1875 322.5625 C-52.1775 322.5625 -53.1675 322.5625 -54.1875 322.5625 Z M-43.1875 324.5625 C-43.5175 325.2225 -43.8475 325.8825 -44.1875 326.5625 C-42.8675 326.8925 -41.5475 327.2225 -40.1875 327.5625 C-41.1775 326.5725 -42.1675 325.5825 -43.1875 324.5625 Z " fill="#FBFBFB" transform="translate(192.1875,15.4375)"/>
<path d="M0 0 C0.97919403 0.00326294 1.95838806 0.00652588 2.96725464 0.0098877 C49.00064729 0.23312993 90.46523837 18.38803535 123.125 50.625 C132.4324199 60.0403805 139.9360103 70.30131718 146.8125 81.5625 C147.493125 82.65175781 148.17375 83.74101563 148.875 84.86328125 C157.13325437 98.58940325 163.21979862 113.95670337 166.8125 129.5625 C167.08320312 130.6774585 167.08320312 130.6774585 167.359375 131.81494141 C177.14052275 173.34351383 170.65655063 220.55401765 148.65625 257.234375 C146.47449712 260.74652388 144.17049457 264.16679689 141.8125 267.5625 C141.38614258 268.17818848 140.95978516 268.79387695 140.52050781 269.42822266 C129.04075839 285.92031662 129.04075839 285.92031662 121.8125 292.5625 C121.1525 292.5625 120.4925 292.5625 119.8125 292.5625 C119.1525 293.8825 118.4925 295.2025 117.8125 296.5625 C117.1525 296.5625 116.4925 296.5625 115.8125 296.5625 C115.8125 297.2225 115.8125 297.8825 115.8125 298.5625 C113.74531619 300.35506523 111.67278281 302.03126028 109.5 303.6875 C108.85699951 304.1817749 108.21399902 304.6760498 107.55151367 305.18530273 C106.24468466 306.18664769 104.93552677 307.18496083 103.62402344 308.18017578 C102.10297897 309.34084341 100.60001397 310.52515101 99.1015625 311.71484375 C81.43346591 325.3421296 58.69841465 335.33149769 36.8125 339.5625 C36.08095703 339.70526367 35.34941406 339.84802734 34.59570312 339.99511719 C-4.95877276 347.47249262 -45.86305297 342.63388871 -81.1875 322.5625 C-82.27675781 321.94890625 -83.36601563 321.3353125 -84.48828125 320.703125 C-100.95863354 310.96972999 -118.86963095 298.25468228 -130.1875 282.5625 C-130.1875 281.9025 -130.1875 281.2425 -130.1875 280.5625 C-130.8475 280.5625 -131.5075 280.5625 -132.1875 280.5625 C-132.5175 279.2425 -132.8475 277.9225 -133.1875 276.5625 C-133.8475 276.5625 -134.5075 276.5625 -135.1875 276.5625 C-136.53162438 274.7822028 -137.78786819 272.93516253 -139 271.0625 C-139.71542969 269.9590625 -140.43085938 268.855625 -141.16796875 267.71875 C-142.16763672 266.15640625 -142.16763672 266.15640625 -143.1875 264.5625 C-143.89326172 263.49515625 -143.89326172 263.49515625 -144.61328125 262.40625 C-148.3120266 256.71957963 -151.25103274 250.66910566 -154.1875 244.5625 C-154.83912109 243.2321875 -154.83912109 243.2321875 -155.50390625 241.875 C-167.429803 216.75210778 -171.36585295 189.17943219 -170.1875 161.5625 C-170.15172852 160.71751953 -170.11595703 159.87253906 -170.07910156 159.00195312 C-169.17184237 140.87001386 -165.13802187 123.36205925 -158.1875 106.5625 C-157.89488281 105.8509375 -157.60226563 105.139375 -157.30078125 104.40625 C-156.31052685 102.09983469 -155.26157271 99.83116842 -154.1875 97.5625 C-153.68347656 96.49 -153.17945313 95.4175 -152.66015625 94.3125 C-148.76635974 86.26002286 -144.40760264 78.85148735 -139.1875 71.5625 C-138.49527344 70.57121094 -137.80304688 69.57992187 -137.08984375 68.55859375 C-126.40234613 53.91140576 -113.03906368 40.94417558 -98.1875 30.5625 C-96.99447266 29.71171875 -96.99447266 29.71171875 -95.77734375 28.84375 C-90.16060285 24.9605711 -84.22438002 21.73892998 -78.1875 18.5625 C-77.35476562 18.09070313 -76.52203125 17.61890625 -75.6640625 17.1328125 C-68.92687831 13.4777419 -61.92869695 10.912405 -54.6875 8.4375 C-53.75784424 8.11281738 -52.82818848 7.78813477 -51.87036133 7.45361328 C-34.73049517 1.77445527 -17.98130113 -0.16280106 0 0 Z M-35.1875 11.5625 C-35.95594238 11.76117676 -36.72438477 11.95985352 -37.51611328 12.16455078 C-67.45152507 20.00827497 -93.04296477 35.04796577 -115.1875 56.5625 C-115.73929932 57.09238525 -116.29109863 57.62227051 -116.85961914 58.16821289 C-142.88279999 83.56078933 -160.92801045 123.40302515 -161.4609375 159.8984375 C-161.47360153 160.68650284 -161.48626556 161.47456818 -161.49931335 162.28651428 C-162.0279082 203.16426493 -152.26987491 238.81194822 -127.51220703 271.7890625 C-126.37676919 273.30911787 -125.2764859 274.85532313 -124.18359375 276.40625 C-122.59352649 278.50174468 -121.3083779 280.02052804 -119.1875 281.5625 C-116.88021575 281.915839 -116.88021575 281.915839 -114.48046875 281.74609375 C-113.67504639 281.7195874 -112.86962402 281.69308105 -112.03979492 281.66577148 C-111.4285376 281.63169189 -110.81728027 281.5976123 -110.1875 281.5625 C-110.02894531 280.41136719 -109.87039062 279.26023437 -109.70703125 278.07421875 C-107.01788476 259.39871024 -103.17678986 240.84134274 -93.1875 224.5625 C-91.8675 224.5625 -90.5475 224.5625 -89.1875 224.5625 C-89.17291748 225.18479492 -89.15833496 225.80708984 -89.14331055 226.44824219 C-88.77320264 240.7032816 -87.65809827 254.5158281 -85.1875 268.5625 C-84.5275 268.5625 -83.8675 268.5625 -83.1875 268.5625 C-83.11402344 269.51962891 -83.11402344 269.51962891 -83.0390625 270.49609375 C-82.92691406 271.73552734 -82.92691406 271.73552734 -82.8125 273 C-82.74289063 273.82371094 -82.67328125 274.64742188 -82.6015625 275.49609375 C-82.46492188 276.17800781 -82.32828125 276.85992187 -82.1875 277.5625 C-81.5275 277.8925 -80.8675 278.2225 -80.1875 278.5625 C-80.16171875 277.43199219 -80.1359375 276.30148437 -80.109375 275.13671875 C-79.27068415 248.56789022 -75.52809187 222.27341226 -62.82421875 198.65234375 C-61.12507859 195.649616 -61.12507859 195.649616 -60.1875 192.5625 C-58.8675 192.8925 -57.5475 193.2225 -56.1875 193.5625 C-56.23463135 195.11469238 -56.23463135 195.11469238 -56.28271484 196.69824219 C-56.86299541 217.70660182 -56.51792555 237.06769048 -51.00439453 257.5 C-50.19059045 260.55091406 -49.45705562 263.61113669 -48.74609375 266.6875 C-47.12744773 273.66778202 -47.12744773 273.66778202 -45.1875 280.5625 C-44.5275 280.8925 -43.8675 281.2225 -43.1875 281.5625 C-42.39070183 278.29289562 -41.60105138 275.02160223 -40.8125 271.75 C-40.59078125 270.84056641 -40.3690625 269.93113281 -40.140625 268.99414062 C-39.46645996 266.18842435 -38.82186531 263.37746545 -38.1875 260.5625 C-37.99043457 259.73129639 -37.79336914 258.90009277 -37.59033203 258.04370117 C-35.88441735 250.03448538 -35.81524174 242.06737163 -35.81689453 233.91333008 C-35.8125511 231.52806496 -35.77620383 229.14470175 -35.73828125 226.75976562 C-35.6682731 216.80745311 -36.877156 207.77402104 -39.32568359 198.12719727 C-40.1875 194.5625 -40.1875 194.5625 -40.1875 191.5625 C-37.95703125 191.68359375 -37.95703125 191.68359375 -35.1875 192.5625 C-33.49440674 194.58387705 -32.20950465 196.38562874 -30.875 198.625 C-30.49182617 199.24769775 -30.10865234 199.87039551 -29.71386719 200.51196289 C-21.13991732 214.70837741 -14.83089736 229.33282086 -11.1875 245.5625 C-9.01107418 242.29786127 -7.3421499 238.89058996 -5.625 235.375 C1.18460669 221.65256337 8.59964179 208.81349161 17.8125 196.5625 C18.45735352 195.69334961 18.45735352 195.69334961 19.11523438 194.80664062 C23.47868696 188.93000269 27.84138183 183.22011794 33.16796875 178.16796875 C34.99573734 176.38361509 36.64822056 174.49985411 38.3125 172.5625 C47.75768193 161.71960056 47.75768193 161.71960056 51.75 161.125 C52.7709375 161.3415625 52.7709375 161.3415625 53.8125 161.5625 C53.20341935 165.44425282 51.3335412 167.76781631 49 170.875 C42.66495094 179.62738763 37.9662896 189.33320241 33.12646484 198.96337891 C32.2785225 200.6406725 31.41528779 202.31036309 30.53369141 203.97021484 C29.56889988 205.80509697 28.68164477 207.68042602 27.8125 209.5625 C28.1425 210.2225 28.4725 210.8825 28.8125 211.5625 C29.89917969 210.25925781 29.89917969 210.25925781 31.0078125 208.9296875 C31.98422706 207.76550091 32.96079797 206.60144543 33.9375 205.4375 C34.411875 204.86773437 34.88625 204.29796875 35.375 203.7109375 C38.67662721 199.78467811 41.97941205 195.98007707 45.8125 192.5625 C47.1325 192.5625 48.4525 192.5625 49.8125 192.5625 C48.94720411 198.59040399 47.31797801 204.35957754 45.71679688 210.22265625 C43.27603553 219.29671793 41.50086229 227.87769064 41.546875 237.3046875 C41.54400482 238.63912399 41.54400482 238.63912399 41.54107666 240.0005188 C41.53972611 241.86769903 41.5433428 243.73488902 41.55175781 245.60205078 C41.5624478 248.4237226 41.55183683 251.24475417 41.5390625 254.06640625 C41.53286812 263.43169506 41.72336023 272.38979635 43.8125 281.5625 C45.1325 281.5625 46.4525 281.5625 47.8125 281.5625 C47.88726562 280.33402344 47.96203125 279.10554688 48.0390625 277.83984375 C51.19819346 233.22790832 64.26987906 188.59930037 89.8125 151.5625 C90.19341797 150.99901855 90.57433594 150.43553711 90.96679688 149.85498047 C95.8319219 142.66859987 101.06454173 135.86148003 106.6875 129.25 C107.2350293 128.59717041 107.78255859 127.94434082 108.34667969 127.27172852 C108.86907227 126.67030029 109.39146484 126.06887207 109.9296875 125.44921875 C110.61973877 124.64810669 110.61973877 124.64810669 111.32373047 123.83081055 C113.09783657 122.31941645 114.54025159 121.96153048 116.8125 121.5625 C116.31548047 127.41203758 114.54900385 131.57232539 111.875 136.75 C90.22672634 180.68830324 84.16988105 228.19306618 84.8125 276.5625 C87.60040896 273.77459104 87.49767039 271.4419371 88.125 267.5625 C90.93159287 251.61438481 95.69840531 237.10813371 102.8125 222.5625 C103.13621582 221.89589355 103.45993164 221.22928711 103.79345703 220.54248047 C108.56396613 210.84381962 114.37592534 202.22435884 120.8125 193.5625 C121.4725 192.5725 122.1325 191.5825 122.8125 190.5625 C124.1325 190.8925 125.4525 191.2225 126.8125 191.5625 C125.98987111 194.99427506 124.99607919 198.36491812 124 201.75 C122.40041624 207.32519157 120.95400236 212.91685852 119.625 218.5625 C119.37496216 219.62053833 119.37496216 219.62053833 119.11987305 220.69995117 C117.08174974 229.48994676 116.62623489 237.78387116 116.62719727 246.77246094 C116.62503292 249.02819331 116.60690997 251.28341787 116.58789062 253.5390625 C116.55340059 262.74145781 117.21264312 271.47640067 118.8125 280.5625 C129.98049129 276.83983624 139.33971262 256.02123925 144.58105469 246.04785156 C148.18669935 238.77079712 151.04783081 231.19030149 153.8125 223.5625 C154.44285156 221.86287109 154.44285156 221.86287109 155.0859375 220.12890625 C165.26073228 191.32582178 165.54236821 154.75425733 156.8125 125.5625 C156.58256348 124.78229492 156.35262695 124.00208984 156.11572266 123.19824219 C143.82165189 82.77485026 115.70608629 47.60739665 78.5625 27.3125 C69.3909108 22.48409723 59.56402479 19.01835171 49.8125 15.5625 C49.0702417 15.29219971 48.3279834 15.02189941 47.56323242 14.7434082 C23.04306644 6.10924033 -9.97785086 4.78020861 -35.1875 11.5625 Z M-10.1875 288.5625 C-11.52083333 291.5625 -11.52083333 291.5625 -10.1875 294.5625 C-9.1975 294.5625 -8.2075 294.5625 -7.1875 294.5625 C-7.1875 296.5425 -7.1875 298.5225 -7.1875 300.5625 C-8.1875 299.5625 -8.1875 299.5625 -10.1875 296.5625 C-10.8475 297.8825 -11.5075 299.2025 -12.1875 300.5625 C-17.9375 300.6875 -17.9375 300.6875 -20.1875 299.5625 C-20.5175 300.2225 -20.8475 300.8825 -21.1875 301.5625 C-21.8475 300.5725 -22.5075 299.5825 -23.1875 298.5625 C-24.1775 298.5625 -25.1675 298.5625 -26.1875 298.5625 C-26.8475 298.5625 -27.5075 298.5625 -28.1875 298.5625 C-28.21328125 299.28695313 -28.2390625 300.01140625 -28.265625 300.7578125 C-28.63204931 307.00368143 -29.29407995 310.66432639 -33.1875 315.5625 C-33.1875 316.2225 -33.1875 316.8825 -33.1875 317.5625 C-34.8375 318.2225 -36.4875 318.8825 -38.1875 319.5625 C-37.68918276 323.25004757 -37.08682357 325.16740662 -34.1875 327.5625 C-35.6725 328.0575 -35.6725 328.0575 -37.1875 328.5625 C-27.15157636 331.36473842 -17.66522765 333.29067216 -7.1875 333.5625 C-6.135625 333.59085937 -5.08375 333.61921875 -4 333.6484375 C5.46567107 333.81931728 5.46567107 333.81931728 14.8125 332.5625 C15.3075 331.5725 15.3075 331.5725 15.8125 330.5625 C12.19276598 329.24623308 9.71682869 328.5625 5.8125 328.5625 C6.1425 326.9125 6.4725 325.2625 6.8125 323.5625 C7.8025 323.2325 8.7925 322.9025 9.8125 322.5625 C9.8125 320.9125 9.8125 319.2625 9.8125 317.5625 C10.4725 317.5625 11.1325 317.5625 11.8125 317.5625 C11.8125 316.9025 11.8125 316.2425 11.8125 315.5625 C11.1525 315.5625 10.4925 315.5625 9.8125 315.5625 C9.64973958 313.54427083 9.48697917 311.52604167 9.32421875 309.5078125 C8.93856964 307.16730784 8.93856964 307.16730784 5.8125 305.5625 C5.4825 306.8825 5.1525 308.2025 4.8125 309.5625 C3.14638095 309.605221 1.47867115 309.60313832 -0.1875 309.5625 C-1.73320331 308.01679669 -1.38574102 306.4931528 -1.46875 304.34375 C-1.52482422 303.06951172 -1.52482422 303.06951172 -1.58203125 301.76953125 C-1.65234375 299.96484375 -1.72265625 298.16015625 -1.79296875 296.35546875 C-1.84904297 295.08123047 -1.84904297 295.08123047 -1.90625 293.78125 C-1.93654297 292.99685547 -1.96683594 292.21246094 -1.99804688 291.40429688 C-1.99341468 289.54623804 -1.99341468 289.54623804 -3.1875 288.5625 C-5.52047433 288.52157063 -7.85455225 288.52008277 -10.1875 288.5625 Z M22.8125 290.5625 C22.8125 291.5525 22.8125 292.5425 22.8125 293.5625 C24.7925 293.5625 26.7725 293.5625 28.8125 293.5625 C28.8125 292.5725 28.8125 291.5825 28.8125 290.5625 C29.8025 290.2325 30.7925 289.9025 31.8125 289.5625 C27.07173451 288.37551999 27.07173451 288.37551999 22.8125 290.5625 Z M-26.1875 289.5625 C-26.8475 290.8825 -27.5075 292.2025 -28.1875 293.5625 C-26.2075 293.5625 -24.2275 293.5625 -22.1875 293.5625 C-21.8575 292.9025 -21.5275 292.2425 -21.1875 291.5625 C-20.5275 292.2225 -19.8675 292.8825 -19.1875 293.5625 C-19.1875 292.2425 -19.1875 290.9225 -19.1875 289.5625 C-21.4975 289.5625 -23.8075 289.5625 -26.1875 289.5625 Z M9.8125 289.5625 C11.7925 290.5525 11.7925 290.5525 13.8125 291.5625 C14.1425 290.9025 14.4725 290.2425 14.8125 289.5625 C13.1625 289.5625 11.5125 289.5625 9.8125 289.5625 Z M15.8125 302.5625 C16.5888932 305.6370356 16.5888932 305.6370356 18.8125 307.5625 C18.4825 308.2225 18.1525 308.8825 17.8125 309.5625 C18.4725 309.5625 19.1325 309.5625 19.8125 309.5625 C20.1425 310.2225 20.4725 310.8825 20.8125 311.5625 C20.8125 310.9025 20.8125 310.2425 20.8125 309.5625 C21.51117188 309.73007812 22.20984375 309.89765625 22.9296875 310.0703125 C23.83976563 310.27398437 24.74984375 310.47765625 25.6875 310.6875 C27.04488281 311.00074219 27.04488281 311.00074219 28.4296875 311.3203125 C29.60917969 311.44019531 29.60917969 311.44019531 30.8125 311.5625 C31.4725 310.9025 32.1325 310.2425 32.8125 309.5625 C32.4825 308.5725 32.1525 307.5825 31.8125 306.5625 C30.4925 306.5625 29.1725 306.5625 27.8125 306.5625 C27.4825 305.9025 27.1525 305.2425 26.8125 304.5625 C26.8125 305.2225 26.8125 305.8825 26.8125 306.5625 C25.8225 306.5625 24.8325 306.5625 23.8125 306.5625 C23.8125 304.5825 23.8125 302.6025 23.8125 300.5625 C20.92854263 300.5625 18.51772185 301.62155327 15.8125 302.5625 Z M-64.1875 310.5625 C-65.1775 312.0475 -65.1775 312.0475 -66.1875 313.5625 C-65.1975 315.0475 -65.1975 315.0475 -64.1875 316.5625 C-65.1775 317.0575 -65.1775 317.0575 -66.1875 317.5625 C-64.21329865 320.08509061 -63.22004358 320.5554808 -60 321.25 C-58.6078125 321.4046875 -58.6078125 321.4046875 -57.1875 321.5625 C-57.1875 320.9025 -57.1875 320.2425 -57.1875 319.5625 C-58.1775 318.9025 -59.1675 318.2425 -60.1875 317.5625 C-60.375 314.4375 -60.375 314.4375 -60.1875 311.5625 C-61.5075 311.2325 -62.8275 310.9025 -64.1875 310.5625 Z M-75.1875 311.5625 C-75.5175 312.2225 -75.8475 312.8825 -76.1875 313.5625 C-75.1975 313.2325 -74.2075 312.9025 -73.1875 312.5625 C-73.8475 312.2325 -74.5075 311.9025 -75.1875 311.5625 Z M-54.1875 322.5625 C-52.2075 323.5525 -52.2075 323.5525 -50.1875 324.5625 C-50.5175 323.9025 -50.8475 323.2425 -51.1875 322.5625 C-52.1775 322.5625 -53.1675 322.5625 -54.1875 322.5625 Z M-43.1875 324.5625 C-43.5175 325.2225 -43.8475 325.8825 -44.1875 326.5625 C-42.8675 326.8925 -41.5475 327.2225 -40.1875 327.5625 C-41.1775 326.5725 -42.1675 325.5825 -43.1875 324.5625 Z " fill="#315D48" transform="translate(192.1875,15.4375)"/>
<path d="M0 0 C1 1 1 1 1.03759766 4.40234375 C1.00205066 5.9142054 0.96042472 7.42593135 0.9140625 8.9375 C0.89282318 9.732771 0.87158386 10.52804199 0.84970093 11.34741211 C0.80335989 13.03213494 0.75442547 14.71678808 0.703125 16.40136719 C0.62533723 18.98878305 0.55818621 21.57632213 0.4921875 24.1640625 C0.44595226 25.79689324 0.39909811 27.4297066 0.3515625 29.0625 C0.33171295 29.84165771 0.3118634 30.62081543 0.29141235 31.42358398 C0.11501302 36.88498698 0.11501302 36.88498698 -1 38 C-3.5 38.125 -3.5 38.125 -6 38 C-7 37 -7 37 -7.11352539 34.77514648 C-7.10828857 33.81680908 -7.10305176 32.85847168 -7.09765625 31.87109375 C-7.09443359 30.83662109 -7.09121094 29.80214844 -7.08789062 28.73632812 C-7.07951172 27.64771484 -7.07113281 26.55910156 -7.0625 25.4375 C-7.05798828 24.34501953 -7.05347656 23.25253906 -7.04882812 22.12695312 C-7.03699826 19.41791505 -7.02051543 16.70898401 -7 14 C-8.03833984 15.12921875 -8.03833984 15.12921875 -9.09765625 16.28125 C-16.06838914 23.85255324 -23.08580184 31.37857912 -30.1328125 38.87890625 C-32.71769303 41.63049 -35.29531996 44.38859434 -37.8671875 47.15234375 C-44.13530105 53.87985842 -50.45617135 60.52101471 -57.00024414 66.98095703 C-60.2438444 70.19741187 -63.26872654 73.53055169 -66.2265625 77.0078125 C-69.19693779 80.34457769 -72.42081411 83.42778176 -75.59765625 86.56640625 C-77.63714373 88.63242365 -79.555078 90.73005549 -81.4375 92.9375 C-84.74211116 96.80459816 -88.32845304 100.35777845 -91.94628906 103.92675781 C-95.2355555 107.18882149 -98.30561777 110.56976768 -101.3125 114.08984375 C-104.37497338 117.55639347 -107.70030265 120.76153415 -111 124 C-111.63550781 124.75796875 -112.27101563 125.5159375 -112.92578125 126.296875 C-115 128 -115 128 -117.385849 127.82681274 C-120.42128548 126.86675437 -121.70258273 125.75523606 -123.90063477 123.47412109 C-124.99185387 122.35824112 -124.99185387 122.35824112 -126.1051178 121.21981812 C-127.26158058 120.00885971 -127.26158058 120.00885971 -128.44140625 118.7734375 C-130.09302394 117.08586408 -131.74471897 115.39836635 -133.39648438 113.7109375 C-135.98960917 111.03673905 -138.57843891 108.3584794 -141.16479492 105.67773438 C-143.66330566 103.09514255 -146.17655729 100.52760637 -148.69140625 97.9609375 C-149.46440567 97.14958344 -150.23740509 96.33822937 -151.03382874 95.50228882 C-152.1203196 94.39586533 -152.1203196 94.39586533 -153.22875977 93.26708984 C-154.1787661 92.2823317 -154.1787661 92.2823317 -155.14796448 91.27767944 C-156.91895363 89.76507953 -156.91895363 89.76507953 -159.12367249 90.18841553 C-161.72097167 91.31184823 -162.92925579 92.88216603 -164.7421875 95.0546875 C-168.86275168 99.79595067 -173.17585227 104.26920825 -177.6328125 108.6953125 C-178.31857361 109.37768982 -179.00433472 110.06006714 -179.71087646 110.76312256 C-181.84688618 112.88580728 -183.98550404 115.00582949 -186.125 117.125 C-188.9639384 119.93710171 -191.79937177 122.75267265 -194.6328125 125.5703125 C-195.26841095 126.19761261 -195.9040094 126.82491272 -196.55886841 127.47122192 C-200.31911351 131.21114104 -203.8631891 135.07585086 -207.32949829 139.08905029 C-211.34329992 143.68058887 -215.65457368 147.99790821 -219.93457031 152.33959961 C-221.07135136 153.49821658 -222.20180981 154.66306762 -223.32617188 155.83374023 C-224.96627429 157.54044218 -226.62495975 159.22688835 -228.2890625 160.91015625 C-228.78814117 161.43706558 -229.28721985 161.96397491 -229.80142212 162.5068512 C-231.24853516 163.94555664 -231.24853516 163.94555664 -234 166 C-236.85693359 165.81811523 -236.85693359 165.81811523 -239 165 C-238.56593695 160.20896782 -236.33981167 157.68232772 -233.11328125 154.36328125 C-232.58946365 153.81054031 -232.06564606 153.25779938 -231.5259552 152.68830872 C-223.57537706 144.36449662 -215.35977038 136.29229071 -207.1875 128.1875 C-203.90717547 124.93397186 -200.63033226 121.67699264 -197.35546875 118.41796875 C-196.61991257 117.69071091 -195.88435638 116.96345306 -195.12651062 116.2141571 C-191.11272726 112.21927366 -187.29232439 108.12547633 -183.59547424 103.83592224 C-180.01373941 99.71439745 -176.17525498 95.83353685 -172.34716797 91.94213867 C-171.35589791 90.92900478 -170.37095855 89.9096423 -169.39208984 88.88452148 C-167.96047065 87.38627675 -166.51035953 85.90843306 -165.0546875 84.43359375 C-164.20374512 83.55759521 -163.35280273 82.68159668 -162.47607422 81.77905273 C-160 80 -160 80 -157.30908203 80.10864258 C-154.30490041 81.26832402 -153.04757403 82.77051582 -151 85.25 C-147.29285676 89.56365416 -143.46548275 93.67111357 -139.4375 97.6875 C-138.87716064 98.24622803 -138.31682129 98.80495605 -137.73950195 99.38061523 C-134.22683928 102.85404758 -130.62298517 106.17002005 -126.85546875 109.3671875 C-123.40357604 112.40485309 -120.21132043 115.71181285 -117 119 C-113.87815671 116.72956852 -111.30770038 114.29592177 -108.8125 111.375 C-105.005068 106.97685428 -101.0563162 102.72874656 -97.0625 98.5 C-96.39798828 97.79230469 -95.73347656 97.08460938 -95.04882812 96.35546875 C-91.04151225 92.10328294 -86.96597512 87.93497991 -82.80224609 83.83569336 C-80.97357567 81.97308527 -79.26003964 80.04473959 -77.5625 78.0625 C-74.99334729 75.07198284 -72.30682744 72.26883316 -69.5 69.5 C-66.75499458 66.79196435 -64.1272909 64.05830751 -61.625 61.125 C-58.73785181 57.75442235 -55.65752622 54.61496479 -52.5 51.5 C-49.40507759 48.44662714 -46.38065683 45.37676268 -43.5625 42.0625 C-40.06490949 37.9580986 -36.24466273 34.21706583 -32.41137695 30.4309082 C-28.99675414 27.04206829 -25.77956297 23.55081552 -22.6640625 19.8828125 C-20.11716299 17.00110929 -17.36224995 14.33947775 -14.6015625 11.6640625 C-12.91371276 10.07577267 -12.91371276 10.07577267 -12 8 C-13.01320313 8.28875 -14.02640625 8.5775 -15.0703125 8.875 C-16.42176313 9.25040295 -17.77333201 9.62538041 -19.125 10 C-19.79015625 10.19078125 -20.4553125 10.3815625 -21.140625 10.578125 C-25.18996582 11.68970876 -28.80239147 12.30620852 -33 12 C-34 11 -34 11 -34.0625 8.4375 C-34.041875 7.633125 -34.02125 6.82875 -34 6 C-29.10223554 3.71093956 -23.9617962 2.86876132 -18.6875 1.875 C-17.77548828 1.69324219 -16.86347656 1.51148437 -15.92382812 1.32421875 C-10.52203046 0.29419855 -5.50038219 -0.29115947 0 0 Z " fill="#24543F" transform="translate(300,93)"/>
<path d="M0 0 C3.63 0 7.26 0 11 0 C11.495 5.445 11.495 5.445 12 11 C13.32 11 14.64 11 16 11 C16.33 7.37 16.66 3.74 17 0 C18.32 0.33 19.64 0.66 21 1 C20.34 1.33 19.68 1.66 19 2 C18.67 2.99 18.34 3.98 18 5 C19.98 5 21.96 5 24 5 C24 3.35 24 1.7 24 0 C25.32 0 26.64 0 28 0 C28.33 6.6 28.66 13.2 29 20 C30.32 20 31.64 20 33 20 C33.33 13.4 33.66 6.8 34 0 C37.63 0 41.26 0 45 0 C45.495 5.445 45.495 5.445 46 11 C47.32 11 48.64 11 50 11 C50.33 7.37 50.66 3.74 51 0 C54.3 0 57.6 0 61 0 C61.495 9.405 61.495 9.405 62 19 C63.98 19.495 63.98 19.495 66 20 C67.54950268 18.45049732 67.21655193 16.90009406 67.31640625 14.74609375 C67.35830078 13.89208984 67.40019531 13.03808594 67.44335938 12.15820312 C67.48267578 11.26037109 67.52199219 10.36253906 67.5625 9.4375 C67.62727539 8.08495117 67.62727539 8.08495117 67.69335938 6.70507812 C67.79977984 4.47024844 67.90042481 2.23514514 68 0 C71.63 0 75.26 0 79 0 C79.495 5.445 79.495 5.445 80 11 C81.32 11 82.64 11 84 11 C84.33 7.37 84.66 3.74 85 0 C88.63 0 92.26 0 96 0 C96.87664295 4.50010048 97.25399121 6.69677374 96 11 C91.65546682 15.66417601 86.46301198 18.78058309 81 22 C80.22897949 22.46438477 79.45795898 22.92876953 78.66357422 23.40722656 C49.59054039 40.62379294 13.84020022 49.74150685 -20 46 C-22.35229492 44.97900391 -22.35229492 44.97900391 -24 44 C-22.98800537 44.00785522 -22.98800537 44.00785522 -21.95556641 44.01586914 C-18.8453874 44.03688746 -15.73522342 44.04973824 -12.625 44.0625 C-11.03365234 44.07506836 -11.03365234 44.07506836 -9.41015625 44.08789062 C-2.86049003 44.10798163 3.49447786 43.76642051 10 43 C7.03 42.01 4.06 41.02 1 40 C1 39.34 1 38.68 1 38 C-0.98 38 -2.96 38 -5 38 C-5 37.67 -5 37.34 -5 37 C-3.02 37 -1.04 37 1 37 C1.33 36.01 1.66 35.02 2 34 C2.99 34 3.98 34 5 34 C5 32.35 5 30.7 5 29 C5.66 29 6.32 29 7 29 C7 28.34 7 27.68 7 27 C6.34 27 5.68 27 5 27 C5 25.68 5 24.36 5 23 C4.34 22.67 3.68 22.34 3 22 C2.375 19.9375 2.375 19.9375 2 18 C1.34 19.32 0.68 20.64 0 22 C-1.65 22 -3.3 22 -5 22 C-5.33 21.34 -5.66 20.68 -6 20 C-4.35 20 -2.7 20 -1 20 C-0.67 13.4 -0.34 6.8 0 0 Z M5 1 C6.98 1.99 6.98 1.99 9 3 C9.33 2.34 9.66 1.68 10 1 C8.35 1 6.7 1 5 1 Z M11 14 C11.7763932 17.0745356 11.7763932 17.0745356 14 19 C13.67 19.66 13.34 20.32 13 21 C13.66 21 14.32 21 15 21 C15.33 21.66 15.66 22.32 16 23 C16 22.34 16 21.68 16 21 C16.69867188 21.16757812 17.39734375 21.33515625 18.1171875 21.5078125 C19.02726562 21.71148437 19.93734375 21.91515625 20.875 22.125 C22.23238281 22.43824219 22.23238281 22.43824219 23.6171875 22.7578125 C24.79667969 22.87769531 24.79667969 22.87769531 26 23 C26.66 22.34 27.32 21.68 28 21 C27.67 20.01 27.34 19.02 27 18 C25.68 18 24.36 18 23 18 C22.67 17.34 22.34 16.68 22 16 C22 16.66 22 17.32 22 18 C21.01 18 20.02 18 19 18 C19 16.02 19 14.04 19 12 C16.11604263 12 13.70522185 13.05905327 11 14 Z " fill="#F8F9F8" transform="translate(197,304)"/>
<path d="M0 0 C0.495 0.99 0.495 0.99 1 2 C0.06631719 4.58605567 -0.93549051 7.09294341 -2 9.625 C-8.8090534 26.51228006 -13.45237722 44.04633129 -16.63427734 61.95654297 C-16.94161141 63.67375668 -17.27447745 65.38637336 -17.61328125 67.09765625 C-21.89513065 89.81433816 -21.22199158 112.99920622 -21 136 C-29.25 136 -37.5 136 -46 136 C-47.51612076 87.86316598 -29.09112527 39.60330227 -1 1 C-0.67 0.67 -0.34 0.34 0 0 Z " fill="#B4D8A2" transform="translate(293,161)"/>
<path d="M0 0 C3.63 0 7.26 0 11 0 C11.33 3.63 11.66 7.26 12 11 C13.65 11 15.3 11 17 11 C17.33 7.37 17.66 3.74 18 0 C21.3 0 24.6 0 28 0 C28.33 6.6 28.66 13.2 29 20 C30.65 20 32.3 20 34 20 C34.33 13.4 34.66 6.8 35 0 C38.3 0 41.6 0 45 0 C45.495 5.445 45.495 5.445 46 11 C47.65 11 49.3 11 51 11 C51.33 7.37 51.66 3.74 52 0 C55.3 0 58.6 0 62 0 C62.33 6.6 62.66 13.2 63 20 C64.65 20.33 66.3 20.66 68 21 C64.14578588 29.6309795 64.14578588 29.6309795 60 32 C60.495 32.4125 60.99 32.825 61.5 33.25 C63 35 63 35 63 39 C66.00440021 41.00293347 67.70993945 41.49271626 71.1875 42.125 C72.53908203 42.37636719 72.53908203 42.37636719 73.91796875 42.6328125 C74.94857422 42.81457031 74.94857422 42.81457031 76 43 C76 43.33 76 43.66 76 44 C52.89060313 43.02078827 31.77179669 33.27200021 12 22 C11.30632324 21.61440918 10.61264648 21.22881836 9.89794922 20.83154297 C6.04855847 18.63457361 2.73801856 16.51240765 0 13 C-0.93511279 8.48795303 -0.75564364 4.52686517 0 0 Z M33 22 C32.01 23.485 32.01 23.485 31 25 C31.99 26.485 31.99 26.485 33 28 C32.01 28.495 32.01 28.495 31 29 C32.97420135 31.52259061 33.96745642 31.9929808 37.1875 32.6875 C38.5796875 32.8421875 38.5796875 32.8421875 40 33 C40 32.34 40 31.68 40 31 C39.01 30.34 38.02 29.68 37 29 C36.8125 25.875 36.8125 25.875 37 23 C35.68 22.67 34.36 22.34 33 22 Z M22 23 C21.67 23.66 21.34 24.32 21 25 C21.99 24.67 22.98 24.34 24 24 C23.34 23.67 22.68 23.34 22 23 Z M43 34 C44.98 34.99 44.98 34.99 47 36 C46.67 35.34 46.34 34.68 46 34 C45.01 34 44.02 34 43 34 Z M54 36 C53.67 36.66 53.34 37.32 53 38 C54.32 38.33 55.64 38.66 57 39 C56.01 38.01 55.02 37.02 54 36 Z " fill="#FAFBFA" transform="translate(95,304)"/>
<path d="M0 0 C1.57143786 3.14287571 0.06349781 5.97112506 -0.875 9.1875 C-1.25151201 10.49230886 -1.62393548 11.79830468 -1.9921875 13.10546875 C-2.16089355 13.68449951 -2.32959961 14.26353027 -2.50341797 14.86010742 C-3.88659551 20.82055539 -4.14873514 26.64199173 -4.1328125 32.72265625 C-4.13376923 33.54519394 -4.13472595 34.36773163 -4.13571167 35.2151947 C-4.13638917 36.9506742 -4.13456501 38.68615629 -4.13037109 40.42163086 C-4.12506509 43.03049673 -4.13030574 45.63918663 -4.13671875 48.24804688 C-4.14016155 57.89097431 -3.8223478 67.38636267 -3 77 C-11.58 77 -20.16 77 -29 77 C-29 67.75828609 -28.58415193 59.94279318 -27 51 C-26.85175781 50.04738281 -26.70351562 49.09476562 -26.55078125 48.11328125 C-23.08740546 30.50164691 -10.79822882 13.90680985 0 0 Z " fill="#B4D8A3" transform="translate(233,220)"/>
<path d="M0 0 C0 4.01935211 -1.79817617 6.77915797 -3.625 10.25 C-17.05286877 36.61718223 -22.8383139 64.86819731 -27 94 C-33.6 94 -40.2 94 -47 94 C-45.87219619 83.84976573 -45.87219619 83.84976573 -44.46875 79.5390625 C-44.15768311 78.58273926 -43.84661621 77.62641602 -43.52612305 76.64111328 C-43.18750244 75.6457959 -42.84888184 74.65047852 -42.5 73.625 C-41.96596558 72.04887939 -41.96596558 72.04887939 -41.42114258 70.44091797 C-32.41278018 44.53279704 -17.76536098 20.84643834 0 0 Z " fill="#B5D9A3" transform="translate(224,203)"/>
<path d="M0 0 C2.475 0.495 2.475 0.495 5 1 C4.9685791 2.03479492 4.9371582 3.06958984 4.90478516 4.13574219 C4.24999125 27.82078987 5.21614258 49.11353742 12.20703125 71.94921875 C12.96015345 74.84669874 13.16868123 76.86497124 12.8125 79.8125 C12.73644531 80.56144531 12.66039062 81.31039062 12.58203125 82.08203125 C12 84 12 84 9 86 C2.32204934 64.61391503 -1.89668524 43.35664119 -3 21 C-5.91481766 29.90720929 -8.2651772 38.78891702 -10 48 C-10.29390625 49.50820313 -10.29390625 49.50820313 -10.59375 51.046875 C-12.71097443 63.56340764 -12.66296659 76.33795632 -13 89 C-13.66 88.01 -14.32 87.02 -15 86 C-16.485 86.99 -16.485 86.99 -18 88 C-18.84323924 45.66614699 -18.84323924 45.66614699 -14 31 C-13.74798828 30.20658203 -13.49597656 29.41316406 -13.23632812 28.59570312 C-9.92352449 18.35540603 -5.92617277 9.02435428 0 0 Z " fill="#27543D" transform="translate(132,208)"/>
<path d="M0 0 C0.33 0 0.66 0 1 0 C1.03738281 1.00675781 1.07476562 2.01351562 1.11328125 3.05078125 C1.88750038 20.78724324 5.13279249 37.40645 9.66259766 54.56958008 C9.96343262 55.71966553 10.26426758 56.86975098 10.57421875 58.0546875 C10.84838623 59.08062012 11.12255371 60.10655273 11.4050293 61.16357422 C12 64 12 64 12 69 C5.07 69 -1.86 69 -9 69 C-9.56998495 32.03542029 -9.56998495 32.03542029 -6 18 C-5.74863281 16.85917969 -5.49726562 15.71835938 -5.23828125 14.54296875 C-4.04254293 9.31082275 -2.70966533 4.64514057 0 0 Z " fill="#B4D8A3" transform="translate(129,228)"/>
<path d="M0 0 C3.51245201 3.23180355 5.03305549 6.87691945 6.9375 11.1875 C7.29013916 11.9818042 7.64277832 12.7761084 8.00610352 13.59448242 C11.28157934 21.22262428 13.32626095 28.87716473 15 37 C15.19722656 37.82886719 15.39445312 38.65773438 15.59765625 39.51171875 C16.84093152 47.20071241 14.93330917 53.21743013 12.5 60.4375 C12.16613281 61.45521484 11.83226562 62.47292969 11.48828125 63.52148438 C10.66804025 66.01736057 9.83526771 68.50911238 9 71 C4.38 71 -0.24 71 -5 71 C-4.73689871 68.49899005 -4.46449333 65.99948309 -4.1875 63.5 C-4.11724609 62.82324219 -4.04699219 62.14648438 -3.97460938 61.44921875 C-3.5595525 57.76351369 -3.03626475 54.17028457 -2.26293945 50.5390625 C0.06455994 39.59065955 0.35697832 29.16638319 0.1875 18 C0.17240252 16.24219917 0.15872321 14.48438556 0.14648438 12.7265625 C0.11393333 8.48405047 0.06244141 4.242173 0 0 Z " fill="#B4D7A2" transform="translate(161,226)"/>
<path d="M0 0 C1.27487278 3.82461835 0.48437644 5.63325777 -0.4375 9.5625 C-2.30966259 18.71587401 -2.28336969 27.88919287 -2.25 37.1875 C-2.248862 37.91107697 -2.247724 38.63465393 -2.24655151 39.38015747 C-2.21741603 48.96789879 -1.7783518 58.4400823 -1 68 C-7.93 68 -14.86 68 -22 68 C-22 61.70824575 -21.82481252 56.65199084 -20.4375 50.6875 C-20.17187256 49.53580322 -20.17187256 49.53580322 -19.90087891 48.36083984 C-10.83579821 10.83579821 -10.83579821 10.83579821 0 0 Z " fill="#B4D6A3" transform="translate(306,229)"/>
<path d="M0 0 C0.33 0 0.66 0 1 0 C1.69395461 4.71392087 2.38771423 9.42787038 3.08129883 14.1418457 C3.31692324 15.74309043 3.55259949 17.34432754 3.78833008 18.94555664 C4.1285568 21.25665277 4.46859265 23.56777692 4.80859375 25.87890625 C4.96490517 26.9402755 4.96490517 26.9402755 5.12437439 28.02308655 C5.76030321 32.34730652 6.38187652 36.67313563 7 41 C1.72 41 -3.56 41 -9 41 C-7.82176203 26.59759118 -5.9280765 13.30861618 0 0 Z " fill="#B0D6A1" transform="translate(97,256)"/>
<path d="M0 0 C-1.46416371 4.3049596 -3.78352789 7.60333822 -6.5 11.1875 C-12.51059271 19.32262234 -17.2512354 28.08848855 -22 37 C-22.45375 36.525625 -22.9075 36.05125 -23.375 35.5625 C-24.93258204 33.90972192 -24.93258204 33.90972192 -27 33 C-23.21327318 22.67618687 -15.38871016 5.64038619 -5.91015625 -0.3125 C-3.55912715 -1.15867816 -2.31821118 -0.82793256 0 0 Z " fill="#25533D" transform="translate(215,214)"/>
<path d="M0 0 C1.98 0.495 1.98 0.495 4 1 C3.01 1.495 3.01 1.495 2 2 C1.67 2.99 1.34 3.98 1 5 C2.98 5 4.96 5 7 5 C7 3.35 7 1.7 7 0 C8.32 0 9.64 0 11 0 C11 6.27 11 12.54 11 19 C8.03 18.67 5.06 18.34 2 18 C2 16.02 2 14.04 2 12 C1.01 12.33 0.02 12.66 -1 13 C-0.67 8.71 -0.34 4.42 0 0 Z " fill="#F1F3F2" transform="translate(214,304)"/>
<path d="M0 0 C3.63 0 7.26 0 11 0 C11.33 3.63 11.66 7.26 12 11 C13.65 11.33 15.3 11.66 17 12 C17 12.33 17 12.66 17 13 C14.33333333 13 11.66666667 13 9 13 C7.66216607 13.31478446 6.32796291 13.64587656 5 14 C5 13.01 5 12.02 5 11 C3.68 10.67 2.36 10.34 1 10 C1.185625 10.515625 1.37125 11.03125 1.5625 11.5625 C2.15419517 14.85908739 1.567267 17.72245735 1 21 C0.67 21 0.34 21 0 21 C0 14.07 0 7.14 0 0 Z M3 1 C2.34 2.32 1.68 3.64 1 5 C2.98 5 4.96 5 7 5 C7.33 4.34 7.66 3.68 8 3 C8.66 3.66 9.32 4.32 10 5 C10 3.68 10 2.36 10 1 C7.69 1 5.38 1 3 1 Z " fill="#EAEDEC" transform="translate(163,304)"/>
<path d="M0 0 C0 6.93 0 13.86 0 21 C-1.65 21 -3.3 21 -5 21 C-5.10845031 18.43635517 -5.18749744 15.87733721 -5.25 13.3125 C-5.28351563 12.59126953 -5.31703125 11.87003906 -5.3515625 11.12695312 C-5.42401083 7.16040732 -5.2698124 5.41712997 -3.046875 1.98046875 C-1 0 -1 0 0 0 Z " fill="#23533E" transform="translate(163,304)"/>
<path d="M0 0 C0.99 0.33 1.98 0.66 3 1 C-0.48307292 4.48307292 -3.96614583 7.96614583 -7.44921875 11.44921875 C-8.05580322 12.05596436 -8.6623877 12.66270996 -9.28735352 13.2878418 C-10.77633593 14.7763997 -12.2669321 16.26334305 -13.7578125 17.75 C-15.09278771 19.08962669 -16.42005323 20.43712086 -17.73046875 21.80078125 C-19.11573927 23.23804584 -20.556786 24.62092884 -22 26 C-22.66 26 -23.32 26 -24 26 C-22.4152642 22.13671373 -19.94043113 19.71123077 -16.9921875 16.796875 C-16.50670441 16.3142218 -16.02122131 15.8315686 -15.52102661 15.33428955 C-13.97700134 13.80141438 -12.42615176 12.27565996 -10.875 10.75 C-9.82375991 9.70879639 -8.77297343 8.66713459 -7.72265625 7.625 C-5.15366996 5.07800536 -2.57851839 2.53734823 0 0 Z " fill="#2F5F4B" transform="translate(90,224)"/>
<path d="M0 0 C0.33 0.99 0.66 1.98 1 3 C2.32 2.01 3.64 1.02 5 0 C5 3.96 5 7.92 5 12 C3.35 12 1.7 12 0 12 C0 8.04 0 4.08 0 0 Z " fill="#1E4B34" transform="translate(141,304)"/>
<path d="M0 0 C0.66 0.33 1.32 0.66 2 1 C0.6415798 4.04332765 -0.88463024 6.12309151 -3.2578125 8.453125 C-3.88300781 9.071875 -4.50820312 9.690625 -5.15234375 10.328125 C-5.80332031 10.96234375 -6.45429687 11.5965625 -7.125 12.25 C-7.78371094 12.8996875 -8.44242187 13.549375 -9.12109375 14.21875 C-10.74296643 15.81711727 -12.3693281 17.41061897 -14 19 C-14.66 18.34 -15.32 17.68 -16 17 C-15.44570312 16.54109375 -14.89140625 16.0821875 -14.3203125 15.609375 C-13.59585938 14.99578125 -12.87140625 14.3821875 -12.125 13.75 C-11.04605469 12.84507812 -11.04605469 12.84507812 -9.9453125 11.921875 C-7.99710528 9.99714015 -7.16236108 8.44095828 -6 6 C-4.11083032 3.86611922 -2.06297713 1.97328247 0 0 Z " fill="#1C4E3A" transform="translate(120,199)"/>
<path d="M0 0 C0.66 0 1.32 0 2 0 C3.56243233 1.74992421 4.9504466 3.59954212 6.3671875 5.46875 C8.11320518 7.45603814 8.11320518 7.45603814 12 7 C13.75 9 13.75 9 15 11 C14.01 12.485 14.01 12.485 13 14 C11.01436365 12.23598822 9.03656344 10.46438117 7.0625 8.6875 C6.49853516 8.18798828 5.93457031 7.68847656 5.35351562 7.17382812 C1.11328125 3.33984375 1.11328125 3.33984375 0 0 Z " fill="#859D91" transform="translate(67,302)"/>
<path d="M0 0 C0.99 0.495 0.99 0.495 2 1 C2 2.65 2 4.3 2 6 C2.99 6 3.98 6 5 6 C5.33 8.31 5.66 10.62 6 13 C5.34 13 4.68 13 4 13 C3.34 12.34 2.68 11.68 2 11 C1.01 11.495 1.01 11.495 0 12 C0 8.04 0 4.08 0 0 Z " fill="#DCE4DF" transform="translate(180,304)"/>
<path d="M0 0 C2.64 0 5.28 0 8 0 C8 2.64 8 5.28 8 8 C6.85073734 7.04578192 5.70569459 6.08647955 4.5625 5.125 C3.92441406 4.59132813 3.28632812 4.05765625 2.62890625 3.5078125 C1 2 1 2 0 0 Z " fill="#E6EAE8" transform="translate(81,304)"/>
<path d="M0 0 C0.33 0 0.66 0 1 0 C1 7.59 1 15.18 1 23 C0.01 23 -0.98 23 -2 23 C-2.33 20.69 -2.66 18.38 -3 16 C-2.34 16.99 -1.68 17.98 -1 19 C-0.67 12.73 -0.34 6.46 0 0 Z " fill="#E8EBE9" transform="translate(112,274)"/>
<path d="M0 0 C0.99 0.33 1.98 0.66 3 1 C0.03 3.97 -2.94 6.94 -6 10 C-6.66 9.34 -7.32 8.68 -8 8 C-5.36 5.36 -2.72 2.72 0 0 Z " fill="#315E4C" transform="translate(262,129)"/>
<path d="M0 0 C0.99 0.33 1.98 0.66 3 1 C0.36 3.64 -2.28 6.28 -5 9 C-5.66 8.34 -6.32 7.68 -7 7 C-4.69 4.69 -2.38 2.38 0 0 Z " fill="#2F5C48" transform="translate(227,166)"/>
<path d="M0 0 C0.66 0.33 1.32 0.66 2 1 C0.50902342 4.7952131 -1.75700849 6.61042731 -5 9 C-5.33 8.01 -5.66 7.02 -6 6 C-4.02 4.02 -2.04 2.04 0 0 Z " fill="#2D5845" transform="translate(235,164)"/>
<path d="M0 0 C-1.38188453 3.21043882 -2.92421903 5.04936365 -5.625 7.25 C-6.57246094 8.03117187 -6.57246094 8.03117187 -7.5390625 8.828125 C-8.02117187 9.21484375 -8.50328125 9.6015625 -9 10 C-7.6834994 5.81113445 -4.97532335 0 0 0 Z " fill="#2A5D48" transform="translate(281,111)"/>
<path d="M0 0 C0 3.44360632 -0.79591532 4.74795392 -2.5 7.6875 C-2.9640625 8.49574219 -3.428125 9.30398437 -3.90625 10.13671875 C-4.44765625 11.05904297 -4.44765625 11.05904297 -5 12 C-5.99 11.34 -6.98 10.68 -8 10 C-5.36 6.7 -2.72 3.4 0 0 Z " fill="#A1C498" transform="translate(224,203)"/>
<path d="M0 0 C1.9375 0.8125 1.9375 0.8125 4 2 C4.33 2.99 4.66 3.98 5 5 C4.01 5.495 4.01 5.495 3 6 C1.35 4.68 -0.3 3.36 -2 2 C-1.34 1.34 -0.68 0.68 0 0 Z " fill="#EBF0EA" transform="translate(106,321)"/>
<path d="M0 0 C0.66 0.33 1.32 0.66 2 1 C0.50902342 4.7952131 -1.75700849 6.61042731 -5 9 C-3.90931332 5.22454612 -3.0916909 2.52956528 0 0 Z " fill="#1D4F38" transform="translate(210,190)"/>
<path d="M0 0 C0.33 0 0.66 0 1 0 C1 3.96 1 7.92 1 12 C-0.32 11.67 -1.64 11.34 -3 11 C-2.34 10.34 -1.68 9.68 -1 9 C-0.95833998 6.6670386 -0.95833998 4.3329614 -1 2 C-0.67 1.34 -0.34 0.68 0 0 Z " fill="#164630" transform="translate(145,304)"/>
<path d="M0 0 C0.99 0.33 1.98 0.66 3 1 C0.03 4.96 0.03 4.96 -3 9 C-3.33 8.34 -3.66 7.68 -4 7 C-3.22265625 5.2734375 -3.22265625 5.2734375 -2.0625 3.375 C-1.381875 2.26125 -0.70125 1.1475 0 0 Z " fill="#E0E5E0" transform="translate(224,218)"/>
<path d="M0 0 C1.65 0 3.3 0 5 0 C4.625 1.9375 4.625 1.9375 4 4 C3.01 4.495 3.01 4.495 2 5 C1.34 4.67 0.68 4.34 0 4 C0 2.68 0 1.36 0 0 Z " fill="#2A513F" transform="translate(242,177)"/>
<path d="M0 0 C1.65 1.65 3.3 3.3 5 5 C4.34 5.66 3.68 6.32 3 7 C1.68 5.68 0.36 4.36 -1 3 C-0.67 2.01 -0.34 1.02 0 0 Z " fill="#1E4A36" transform="translate(72,303)"/>
<path d="M0 0 C0.33 0.66 0.66 1.32 1 2 C-0.68474722 5.36949443 -1.8191658 6.87944386 -5 9 C-5 4.61031544 -2.87194899 3.23094261 0 0 Z " fill="#356751" transform="translate(301,141)"/>
<path d="M0 0 C1.65 0 3.3 0 5 0 C4 3 4 3 1.9375 4.1875 C1.298125 4.455625 0.65875 4.72375 0 5 C0 3.35 0 1.7 0 0 Z " fill="#F0F0F1" transform="translate(299,304)"/>
</svg>
