<?xml version="1.0" encoding="UTF-8"?>
<svg version="1.1" xmlns="http://www.w3.org/2000/svg" width="220" height="220">
<path d="M0 0 C4.41079226 -0.04980916 8.82143112 -0.08591133 13.23242188 -0.10986328 C14.72984676 -0.11985901 16.22725244 -0.13346014 17.72460938 -0.15087891 C19.88937143 -0.17541288 22.05387323 -0.18654744 24.21875 -0.1953125 C25.51748047 -0.20578613 26.81621094 -0.21625977 28.15429688 -0.22705078 C36.03524121 0.23824113 41.69044038 2.0289319 47 8 C49.11737734 10.94558176 50.90909027 14.02836976 52.6875 17.1875 C53.73108205 18.98292949 54.77670756 20.77717256 55.82421875 22.5703125 C56.6138501 23.9301123 56.6138501 23.9301123 57.41943359 25.31738281 C59.85769745 29.45572745 62.42052617 33.51115648 65 37.5625 C65.49314697 38.33916016 65.98629395 39.11582031 66.49438477 39.91601562 C67.49259502 41.48711884 68.49153682 43.0577575 69.49121094 44.62792969 C75.86321538 54.64579299 82.19209112 64.6916665 88.5 74.75 C88.89719238 75.38123779 89.29438477 76.01247559 89.70361328 76.6628418 C90.0798584 77.26394775 90.45610352 77.86505371 90.84375 78.484375 C91.32618164 79.25346191 91.32618164 79.25346191 91.81835938 80.03808594 C92.20830078 80.68551758 92.59824219 81.33294922 93 82 C94.04462402 83.3463855 94.04462402 83.3463855 95.11035156 84.7199707 C98.52015723 90.76564588 97.48550292 98.2617958 97.390625 104.99609375 C97.38315581 106.55549898 97.37746608 108.11491366 97.37347412 109.67433167 C97.35827089 113.75982002 97.31903606 117.84473096 97.2746582 121.92999268 C97.23358999 126.10624381 97.21543857 130.2825891 97.1953125 134.45898438 C97.15253562 142.63958659 97.08435002 150.81972127 97 159 C92.3680138 159.82284596 87.92730635 160.14663694 83.23046875 160.1328125 C82.14805656 160.13424759 82.14805656 160.13424759 81.04377747 160.13571167 C79.53024202 160.13638828 78.0167036 160.13457041 76.50317383 160.13037109 C74.17718099 160.12497607 71.85137783 160.13035356 69.52539062 160.13671875 C68.05208291 160.13605864 66.5787753 160.13477888 65.10546875 160.1328125 C64.40761765 160.13483673 63.70976654 160.13686096 62.99076843 160.13894653 C58.1149786 160.1149786 58.1149786 160.1149786 57 159 C56.74120371 156.64654694 56.55597081 154.32674639 56.421875 151.96484375 C56.3785907 151.21677963 56.3353064 150.46871552 56.29071045 149.69798279 C55.96553508 143.19057296 55.98716288 136.70472133 56.078125 130.19140625 C56.09691711 128.65134415 56.09691711 128.65134415 56.11608887 127.08016968 C56.1703129 122.82914593 56.22729324 118.5787041 56.32226562 114.32836914 C56.3891995 111.17841335 56.4236862 108.02940713 56.453125 104.87890625 C56.48206848 103.93390762 56.51101196 102.988909 56.54083252 102.01527405 C56.57461927 93.5307878 53.42175185 87.44042624 48.6875 80.5625 C47 78 47 78 47 75 C46.34 75 45.68 75 45 75 C43.70092773 73.15087891 43.70092773 73.15087891 42.24609375 70.6015625 C41.7135498 69.68407227 41.18100586 68.76658203 40.63232422 67.82128906 C40.09365723 66.89026367 39.55499023 65.95923828 39 65 C38.0391367 63.42045479 37.0718851 61.84477436 36.09765625 60.2734375 C35.6068457 59.48066406 35.11603516 58.68789062 34.61035156 57.87109375 C34.09956055 57.04738281 33.58876953 56.22367188 33.0625 55.375 C32.5169043 54.49199219 31.97130859 53.60898438 31.40917969 52.69921875 C28.25609463 47.60454385 25.07268332 42.5310094 21.85546875 37.4765625 C21.17154053 36.39713379 20.4876123 35.31770508 19.78295898 34.20556641 C18.44902039 32.10221421 17.10888343 30.00277754 15.76196289 27.90771484 C14.85111938 26.468396 14.85111938 26.468396 13.921875 25 C13.38143555 24.154375 12.84099609 23.30875 12.28417969 22.4375 C10.96168241 19.92726942 10.40551903 17.7949619 10 15 C9.34 15 8.68 15 8 15 C6.30859375 12.734375 6.30859375 12.734375 4.4375 9.75 C3.81746094 8.77546875 3.19742188 7.8009375 2.55859375 6.796875 C1.21776419 4.39077484 0.58159865 2.63676864 0 0 Z " fill="#224B2D" transform="translate(29,38)"/>
<path d="M0 0 C0.495 0.99 0.495 0.99 1 2 C0.33165569 3.78281077 -0.42649351 5.53220343 -1.22265625 7.26171875 C-4.1216468 13.97332718 -5.8116332 20.70341323 -7.4375 27.8125 C-12.31483132 48.04660124 -18.49811986 66.35740372 -37.12109375 77.94140625 C-48.34202571 84.04223078 -60.20333013 86.68553589 -73 86 C-72.46381985 80.32910641 -71.37912846 75.48470507 -69.3125 70.1875 C-69.0434082 69.49027832 -68.77431641 68.79305664 -68.49707031 68.07470703 C-62.8980584 53.90731225 -54.19875088 41.2723036 -44 30 C-60.08549095 41.27970229 -71.92134493 56.92840718 -77 76 C-77.99 76 -78.98 76 -80 76 C-83.42964272 62.98573074 -83.81969958 48.26577904 -77.48828125 36.09375 C-75.77437298 33.28987311 -73.95427162 30.64112859 -72 28 C-71.48695313 27.29101562 -70.97390625 26.58203125 -70.4453125 25.8515625 C-53.71840279 4.79729307 -25.39108368 -1.2155306 0 0 Z " fill="#97C149" transform="translate(202,33)"/>
<path d="M0 0 C5.61 0 11.22 0 17 0 C17 0.99 17 1.98 17 3 C11.72 3 6.44 3 1 3 C1 5.97 1 8.94 1 12 C4.3 12 7.6 12 11 12 C11 12.99 11 13.98 11 15 C7.7 15 4.4 15 1 15 C1 17.97 1 20.94 1 24 C6.94 24 12.88 24 19 24 C19 24.99 19 25.98 19 27 C13.06 27 7.12 27 1 27 C1 29.97 1 32.94 1 36 C4.3 36 7.6 36 11 36 C11 36.99 11 37.98 11 39 C7.7 39 4.4 39 1 39 C1 41.97 1 44.94 1 48 C4.96 48 8.92 48 13 48 C13 48.99 13 49.98 13 51 C9.04 51 5.08 51 1 51 C1 53.64 1 56.28 1 59 C0.67 59 0.34 59 0 59 C-0.17183889 56.43775934 -0.33748935 53.87533694 -0.5 51.3125 C-0.54769531 50.61060547 -0.59539062 49.90871094 -0.64453125 49.18554688 C-1.380754 37.3533955 -0.94302002 25.5233187 -0.5 13.6875 C-0.45160953 12.34961708 -0.40343145 11.01172645 -0.35546875 9.67382812 C-0.23905413 6.44914317 -0.11982439 3.22456005 0 0 Z " fill="#EEF1EF" transform="translate(86,138)"/>
<path d="M0 0 C0.33 0 0.66 0 1 0 C1 2.97 1 5.94 1 9 C6.94 9 12.88 9 19 9 C19 9.99 19 10.98 19 12 C13.06 12 7.12 12 1 12 C1 14.97 1 17.94 1 21 C0.67 21 0.34 21 0 21 C-1.5056121 13.97381022 -0.64057643 7.10547081 0 0 Z " fill="#E8EBE9" transform="translate(86,153)"/>
<path d="M0 0 C4.44742458 -0.02483101 8.89481178 -0.04292183 13.34228516 -0.05493164 C14.85336002 -0.05994162 16.36443009 -0.06675144 17.87548828 -0.07543945 C20.05502512 -0.08765176 22.23449753 -0.09326178 24.4140625 -0.09765625 C26.37786865 -0.10551147 26.37786865 -0.10551147 28.38134766 -0.11352539 C31.69013513 -0.00972117 34.75595018 0.36567632 38 1 C38 1.33 38 1.66 38 2 C26.12 2 14.24 2 2 2 C1.67 2.66 1.34 3.32 1 4 C0.67 2.68 0.34 1.36 0 0 Z " fill="#B3BBB3" transform="translate(29,38)"/>
<path d="M0 0 C0.66 0.33 1.32 0.66 2 1 C2 1.99 2 2.98 2 4 C-0.3359375 5.82421875 -0.3359375 5.82421875 -3.375 7.6875 C-4.37273438 8.31011719 -5.37046875 8.93273438 -6.3984375 9.57421875 C-9 11 -9 11 -11 11 C-10.67 12.65 -10.34 14.3 -10 16 C-12.96865509 13.45543849 -14.3619751 10.51005335 -16 7 C-15.34 7 -14.68 7 -14 7 C-14 7.66 -14 8.32 -14 9 C-13.01257812 8.33871094 -12.02515625 7.67742188 -11.0078125 6.99609375 C-9.71381912 6.14280826 -8.41953307 5.28996649 -7.125 4.4375 C-6.14853516 3.78104492 -6.14853516 3.78104492 -5.15234375 3.11132812 C-3.47374503 2.01245164 -1.73976613 0.9992182 0 0 Z " fill="#F0F0EA" transform="translate(58,53)"/>
<path d="M0 0 C-0.16015625 1.765625 -0.16015625 1.765625 -1 4 C-3.43359375 5.921875 -3.43359375 5.921875 -6.4375 7.75 C-7.92056641 8.67039062 -7.92056641 8.67039062 -9.43359375 9.609375 C-12 11 -12 11 -14 11 C-14.33 11.66 -14.66 12.32 -15 13 C-15.66 11.35 -16.32 9.7 -17 8 C-15.90558594 7.60167969 -15.90558594 7.60167969 -14.7890625 7.1953125 C-11.19262844 5.65398362 -8.25933085 3.50580255 -5.0859375 1.2421875 C-3 0 -3 0 0 0 Z " fill="#E9EBE5" transform="translate(97,113)"/>
<path d="M0 0 C0.99 0.33 1.98 0.66 3 1 C1.64950057 5.05149828 -0.37106216 5.79371969 -3.9375 8.0625 C-8.20324628 10.74018437 -8.20324628 10.74018437 -12 14 C-12.66 12.35 -13.32 10.7 -14 9 C-11.73692309 7.46636928 -9.46583175 5.94815741 -7.1875 4.4375 C-6.54490234 3.99986328 -5.90230469 3.56222656 -5.24023438 3.11132812 C-3.5432482 1.99465846 -1.77422942 0.98935494 0 0 Z " fill="#EFF0EB" transform="translate(70,73)"/>
<path d="M0 0 C0.99 0.99 1.98 1.98 3 3 C-1.29 5.97 -5.58 8.94 -10 12 C-11.32 10.68 -12.64 9.36 -14 8 C-13.67 7.34 -13.34 6.68 -13 6 C-12.319375 5.896875 -11.63875 5.79375 -10.9375 5.6875 C-6.73121965 4.70305141 -3.55439215 2.39017437 0 0 Z " fill="#EFEEE3" transform="translate(81,94)"/>
<path d="M0 0 C0.66 0.33 1.32 0.66 2 1 C1.01 4.96 0.02 8.92 -1 13 C-1.99 13 -2.98 13 -4 13 C-4 10.03 -4 7.06 -4 4 C-3.01 3.67 -2.02 3.34 -1 3 C-0.67 2.01 -0.34 1.02 0 0 Z " fill="#9EC56B" transform="translate(126,96)"/>
<path d="M0 0 C-0.1875 1.8125 -0.1875 1.8125 -1 4 C-3.4375 5.625 -3.4375 5.625 -6 7 C-6.66 7.66 -7.32 8.32 -8 9 C-8.99 7.02 -9.98 5.04 -11 3 C-10.236875 2.87625 -9.47375 2.7525 -8.6875 2.625 C-5.22906187 1.82071206 -3.63469886 0 0 0 Z " fill="#E7E8DF" transform="translate(60,68)"/>
<path d="M0 0 C-1.33926124 4.01778372 -3.49134469 4.78023848 -7 7 C-7.66 7.66 -8.32 8.32 -9 9 C-9.66 7.35 -10.32 5.7 -11 4 C-9.73760288 3.13341385 -8.46472499 2.28207941 -7.1875 1.4375 C-6.47980469 0.96183594 -5.77210937 0.48617187 -5.04296875 -0.00390625 C-3 -1 -3 -1 0 0 Z " fill="#E7E6DD" transform="translate(73,88)"/>
<path d="M0 0 C0.515625 0.2475 1.03125 0.495 1.5625 0.75 C1.5625 1.41 1.5625 2.07 1.5625 2.75 C-2.82211538 5.75 -2.82211538 5.75 -5.4375 5.75 C-5.7675 7.07 -6.0975 8.39 -6.4375 9.75 C-6.56125 8.945625 -6.685 8.14125 -6.8125 7.3125 C-7.121875 6.0440625 -7.121875 6.0440625 -7.4375 4.75 C-8.0975 4.42 -8.7575 4.09 -9.4375 3.75 C-3.0375 -0.31153846 -3.0375 -0.31153846 0 0 Z " fill="#EAEDE8" transform="translate(46.4375,48.25)"/>
<path d="M0 0 C2.0625 0.4375 2.0625 0.4375 4 1 C2.74874616 4.75376152 1.4347596 5.24073289 -2 7 C-2.66 7 -3.32 7 -4 7 C-4.33 7.66 -4.66 8.32 -5 9 C-5 8.01 -5 7.02 -5 6 C-5.66 6 -6.32 6 -7 6 C-5.62209707 3.24419414 -3.62850007 2.51138754 -1 1 C-0.67 0.67 -0.34 0.34 0 0 Z " fill="#E9ECE6" transform="translate(81,107)"/>
<path d="M0 0 C0.66 0.33 1.32 0.66 2 1 C-1.3 4.63 -4.6 8.26 -8 12 C-8.99 11.67 -9.98 11.34 -11 11 C-7.6189962 6.86378916 -4.33409466 3.18683431 0 0 Z " fill="#AFD075" transform="translate(142,49)"/>
<path d="M0 0 C3.63 0 7.26 0 11 0 C11 0.99 11 1.98 11 3 C7.37 3 3.74 3 0 3 C0 2.01 0 1.02 0 0 Z " fill="#FCFCFC" transform="translate(86,174)"/>
<path d="M0 0 C3.63 0 7.26 0 11 0 C11 0.99 11 1.98 11 3 C7.37 3 3.74 3 0 3 C0 2.01 0 1.02 0 0 Z " fill="#F7F7F6" transform="translate(86,150)"/>
<path d="M0 0 C0.99 0.99 1.98 1.98 3 3 C0.69 4.32 -1.62 5.64 -4 7 C-4 4 -4 4 -2 1.8125 C-1.34 1.214375 -0.68 0.61625 0 0 Z " fill="#F0F0E8" transform="translate(81,94)"/>
<path d="M0 0 C0.66 0 1.32 0 2 0 C2 0.66 2 1.32 2 2 C2.99 1.67 3.98 1.34 5 1 C5.66 1.99 6.32 2.98 7 4 C6.34 4 5.68 4 5 4 C5.33 5.65 5.66 7.3 6 9 C3.03134491 6.45543849 1.6380249 3.51005335 0 0 Z " fill="#D2D6C9" transform="translate(42,60)"/>
<path d="M0 0 C3.465 1.485 3.465 1.485 7 3 C5.68 3.99 4.36 4.98 3 6 C0 2.25 0 2.25 0 0 Z " fill="#C6CCBE" transform="translate(67,100)"/>
</svg>
