<svg xmlns="http://www.w3.org/2000/svg" viewBox="0 0 100 100">
  <!-- Ruler / yardstick body -->
  <rect x="44" y="6" width="12" height="84" rx="2" fill="#F5D650"/>
  <rect x="44" y="6" width="12" height="84" rx="2" fill="none" stroke="#C9A700" stroke-width="1"/>

  <!-- Left side tick marks (major) -->
  <line x1="44" y1="13" x2="49" y2="13" stroke="#6D4C41" stroke-width="1.2"/>
  <line x1="44" y1="23" x2="49" y2="23" stroke="#6D4C41" stroke-width="1.2"/>
  <line x1="44" y1="33" x2="49" y2="33" stroke="#6D4C41" stroke-width="1.2"/>
  <line x1="44" y1="43" x2="49" y2="43" stroke="#6D4C41" stroke-width="1.2"/>
  <line x1="44" y1="53" x2="49" y2="53" stroke="#6D4C41" stroke-width="1.2"/>
  <line x1="44" y1="63" x2="49" y2="63" stroke="#6D4C41" stroke-width="1.2"/>
  <line x1="44" y1="73" x2="49" y2="73" stroke="#6D4C41" stroke-width="1.2"/>
  <line x1="44" y1="83" x2="49" y2="83" stroke="#6D4C41" stroke-width="1.2"/>

  <!-- Left side tick marks (minor) -->
  <line x1="44" y1="18" x2="47" y2="18" stroke="#8D6E63" stroke-width="0.8"/>
  <line x1="44" y1="28" x2="47" y2="28" stroke="#8D6E63" stroke-width="0.8"/>
  <line x1="44" y1="38" x2="47" y2="38" stroke="#8D6E63" stroke-width="0.8"/>
  <line x1="44" y1="48" x2="47" y2="48" stroke="#8D6E63" stroke-width="0.8"/>
  <line x1="44" y1="58" x2="47" y2="58" stroke="#8D6E63" stroke-width="0.8"/>
  <line x1="44" y1="68" x2="47" y2="68" stroke="#8D6E63" stroke-width="0.8"/>
  <line x1="44" y1="78" x2="47" y2="78" stroke="#8D6E63" stroke-width="0.8"/>
  <line x1="44" y1="88" x2="47" y2="88" stroke="#8D6E63" stroke-width="0.8"/>

  <!-- Right side tick marks (major) -->
  <line x1="56" y1="13" x2="51" y2="13" stroke="#6D4C41" stroke-width="1.2"/>
  <line x1="56" y1="23" x2="51" y2="23" stroke="#6D4C41" stroke-width="1.2"/>
  <line x1="56" y1="33" x2="51" y2="33" stroke="#6D4C41" stroke-width="1.2"/>
  <line x1="56" y1="43" x2="51" y2="43" stroke="#6D4C41" stroke-width="1.2"/>
  <line x1="56" y1="53" x2="51" y2="53" stroke="#6D4C41" stroke-width="1.2"/>
  <line x1="56" y1="63" x2="51" y2="63" stroke="#6D4C41" stroke-width="1.2"/>
  <line x1="56" y1="73" x2="51" y2="73" stroke="#6D4C41" stroke-width="1.2"/>
  <line x1="56" y1="83" x2="51" y2="83" stroke="#6D4C41" stroke-width="1.2"/>

  <!-- Right side tick marks (minor) -->
  <line x1="56" y1="18" x2="53" y2="18" stroke="#8D6E63" stroke-width="0.8"/>
  <line x1="56" y1="28" x2="53" y2="28" stroke="#8D6E63" stroke-width="0.8"/>
  <line x1="56" y1="38" x2="53" y2="38" stroke="#8D6E63" stroke-width="0.8"/>
  <line x1="56" y1="48" x2="53" y2="48" stroke="#8D6E63" stroke-width="0.8"/>
  <line x1="56" y1="58" x2="53" y2="58" stroke="#8D6E63" stroke-width="0.8"/>
  <line x1="56" y1="68" x2="53" y2="68" stroke="#8D6E63" stroke-width="0.8"/>
  <line x1="56" y1="78" x2="53" y2="78" stroke="#8D6E63" stroke-width="0.8"/>
  <line x1="56" y1="88" x2="53" y2="88" stroke="#8D6E63" stroke-width="0.8"/>

  <!-- Ground -->
  <path d="M4,93 Q50,98 96,93 L96,100 L4,100 Z" fill="#4E342E" opacity="0.18"/>

  <!-- Grass blades drawn on top of the ruler base -->
  <!-- Far left -->
  <path d="M9,97 C8,86 5,76 10,63" stroke="#1B5E20" stroke-width="2.1" fill="none" stroke-linecap="round"/>
  <!-- Left cluster -->
  <path d="M19,96 C17,85 14,74 18,62" stroke="#2E7D32" stroke-width="2.2" fill="none" stroke-linecap="round"/>
  <path d="M27,96 C25,84 28,74 24,60" stroke="#388E3C" stroke-width="2" fill="none" stroke-linecap="round"/>
  <!-- Left-center (overlapping ruler) -->
  <path d="M35,97 C33,84 37,74 34,61" stroke="#2E7D32" stroke-width="2.2" fill="none" stroke-linecap="round"/>
  <path d="M40,97 C38,85 42,76 39,64" stroke="#43A047" stroke-width="2" fill="none" stroke-linecap="round"/>
  <!-- Right-center (overlapping ruler) -->
  <path d="M60,97 C62,84 58,74 61,61" stroke="#43A047" stroke-width="2" fill="none" stroke-linecap="round"/>
  <path d="M65,97 C67,84 63,74 66,61" stroke="#2E7D32" stroke-width="2.2" fill="none" stroke-linecap="round"/>
  <!-- Right cluster -->
  <path d="M73,96 C75,83 72,72 76,60" stroke="#388E3C" stroke-width="2" fill="none" stroke-linecap="round"/>
  <path d="M81,96 C83,84 86,74 82,62" stroke="#2E7D32" stroke-width="2.2" fill="none" stroke-linecap="round"/>
  <!-- Far right -->
  <path d="M91,97 C92,86 95,76 90,63" stroke="#1B5E20" stroke-width="2.1" fill="none" stroke-linecap="round"/>
</svg>
